<?xml version="1.0" encoding="utf-8" standalone="no"?>
<!DOCTYPE svg PUBLIC "-//W3C//DTD SVG 1.1//EN"
  "http://www.w3.org/Graphics/SVG/1.1/DTD/svg11.dtd">
<svg xmlns:xlink="http://www.w3.org/1999/xlink" width="720pt" height="720pt" viewBox="0 0 720 720" xmlns="http://www.w3.org/2000/svg" version="1.1">
 <metadata>
  <rdf:RDF xmlns:dc="http://purl.org/dc/elements/1.1/" xmlns:cc="http://creativecommons.org/ns#" xmlns:rdf="http://www.w3.org/1999/02/22-rdf-syntax-ns#">
   <cc:Work>
    <dc:type rdf:resource="http://purl.org/dc/dcmitype/StillImage"/>
    <dc:date>2022-12-23T09:37:11.555165</dc:date>
    <dc:format>image/svg+xml</dc:format>
    <dc:creator>
     <cc:Agent>
      <dc:title>Matplotlib v3.5.2, https://matplotlib.org/</dc:title>
     </cc:Agent>
    </dc:creator>
   </cc:Work>
  </rdf:RDF>
 </metadata>
 <defs>
  <style type="text/css">*{stroke-linejoin: round; stroke-linecap: butt}</style>
 </defs>
 <g id="figure_1">
  <g id="patch_1">
   <path d="M 0 720 
L 720 720 
L 720 0 
L 0 0 
L 0 720 
z
" style="fill: none"/>
  </g>
  <g id="axes_1">
   <g id="patch_2">
    <path d="M 114.768301 237.087592 
C 85.515027 264.914779 67.135727 302.291607 62.958698 342.449531 
C 58.781669 382.607455 69.075247 422.966694 91.975374 456.21862 
C 91.560283 450.536771 91.506006 444.83431 91.812871 439.145589 
C 92.119735 433.456869 92.787123 427.793335 93.811015 422.189109 
C 86.906151 391.251397 85.201777 359.378619 88.767956 327.880976 
C 92.334135 296.383333 101.121323 265.698414 114.768301 237.087592 
" clip-path="url(#p8bcfddfa26)" style="fill: #c44e52; opacity: 0.4"/>
   </g>
   <g id="patch_3">
    <path d="M 114.768301 237.087592 
C 146.465826 206.935312 188.630087 190.183338 232.377791 190.361028 
C 276.125494 190.538718 318.152283 207.63265 349.603827 238.041423 
C 381.055371 268.450197 399.556069 309.876972 401.208137 353.593831 
C 402.860206 397.31069 387.538861 440.015607 358.472049 472.71138 
C 354.73922 491.458625 347.058871 509.198532 335.94269 524.749214 
C 324.826508 540.299896 310.526965 553.308167 293.996738 562.907376 
C 277.466512 572.506586 259.081037 578.478717 240.065208 580.425888 
C 221.04938 582.373059 201.835086 580.251046 183.702439 574.201224 
C 206.013868 593.861741 231.260717 609.916116 258.528283 621.782693 
C 285.795849 633.64927 314.750803 641.182988 344.344099 644.110898 
C 373.937395 647.038808 403.807272 645.325117 432.871535 639.031914 
C 461.935799 632.738711 489.839155 621.942926 515.570658 607.035694 
C 541.302161 592.128461 564.547258 573.292014 584.463772 551.208801 
C 604.380285 529.125588 620.724749 504.065564 632.904997 476.936661 
C 645.085245 449.807758 652.952381 420.941611 656.221377 391.384049 
C 659.490373 361.826486 658.121268 331.938833 652.163663 302.803926 
C 646.206059 273.66902 635.732784 245.643018 621.123289 219.74131 
C 606.513793 193.839603 587.946669 170.378823 566.09461 150.208962 
C 544.24255 130.0391 519.372683 113.406722 492.386051 100.914423 
C 465.39942 88.422124 436.625919 80.222616 407.108022 76.612968 
C 377.590125 73.00332 347.688669 74.027659 318.486995 79.648872 
C 289.285321 85.270085 261.140401 95.419457 235.071934 109.729273 
C 209.003466 124.039089 185.330123 142.334419 164.909597 163.952419 
C 144.489071 185.570419 127.57099 210.246821 114.768301 237.087592 
" clip-path="url(#p8bcfddfa26)" style="fill: #55a868; opacity: 0.4"/>
   </g>
   <g id="patch_4">
    <path d="M 114.768301 237.087592 
C 101.121323 265.698414 92.334135 296.383333 88.767956 327.880976 
C 85.201777 359.378619 86.906151 391.251397 93.811015 422.189109 
C 97.006808 404.697067 103.634241 388.009542 113.310234 373.091104 
C 122.986227 358.172666 135.520689 345.316399 150.189105 335.265418 
C 164.857521 325.214438 181.371719 318.166203 198.777148 314.528115 
C 216.182577 310.890027 234.137294 310.733559 251.603483 314.067754 
C 269.069673 317.401949 285.704199 324.161305 300.545554 333.955119 
C 315.38691 343.748933 328.143527 356.384798 338.078048 371.132338 
C 348.012569 385.879878 354.929823 402.449366 358.429981 419.883056 
C 361.930139 437.316745 361.944437 455.272138 358.472049 472.71138 
C 387.538861 440.015607 402.860206 397.31069 401.208137 353.593831 
C 399.556069 309.876972 381.055371 268.450197 349.603827 238.041423 
C 318.152283 207.63265 276.125494 190.538718 232.377791 190.361028 
C 188.630087 190.183338 146.465826 206.935312 114.768301 237.087592 
" clip-path="url(#p8bcfddfa26)" style="fill: #c5ac82; opacity: 0.4"/>
   </g>
   <g id="patch_5">
    <path d="M 91.975374 456.21862 
C 93.912833 482.738965 103.659228 508.101346 119.980413 529.094233 
C 136.301599 550.087121 158.478322 565.785386 183.702439 574.201224 
C 169.288583 561.499937 156.193491 547.376134 144.616398 532.044701 
C 133.039305 516.713268 123.039224 500.252355 114.768301 482.912408 
C 110.521041 478.8722 106.486048 474.614558 102.679566 470.156622 
C 98.873084 465.698685 95.300226 461.046442 91.975374 456.21862 
" clip-path="url(#p8bcfddfa26)" style="fill: #4c72b0; opacity: 0.4"/>
   </g>
   <g id="patch_6">
    <path d="M 91.975374 456.21862 
C 95.300226 461.046442 98.873084 465.698685 102.679566 470.156622 
C 106.486048 474.614558 110.521041 478.8722 114.768301 482.912408 
C 110.148014 473.225998 106.077569 463.286774 102.576351 453.142068 
C 99.075133 442.997362 96.148709 432.663304 93.811015 422.189109 
C 92.787123 427.793335 92.119735 433.456869 91.812871 439.145589 
C 91.506006 444.83431 91.560283 450.536771 91.975374 456.21862 
" clip-path="url(#p8bcfddfa26)" style="fill: #be86b5; opacity: 0.4"/>
   </g>
   <g id="patch_7">
    <path d="M 358.472049 472.71138 
C 343.351197 489.720055 324.961102 503.513283 304.399381 513.267812 
C 283.83766 523.022341 261.521694 528.540165 238.783415 529.491951 
C 216.045137 530.443737 193.346109 526.810165 172.041127 518.808106 
C 150.736145 510.806046 131.257678 498.597932 114.768301 482.912408 
C 123.039224 500.252355 133.039305 516.713268 144.616398 532.044701 
C 156.193491 547.376134 169.288583 561.499937 183.702439 574.201224 
C 201.835086 580.251046 221.04938 582.373059 240.065208 580.425888 
C 259.081037 578.478717 277.466512 572.506586 293.996738 562.907376 
C 310.526965 553.308167 324.826508 540.299896 335.94269 524.749214 
C 347.058871 509.198532 354.73922 491.458625 358.472049 472.71138 
" clip-path="url(#p8bcfddfa26)" style="fill: #71c5c4; opacity: 0.4"/>
   </g>
   <g id="patch_8">
    <path d="M 93.811015 422.189109 
C 96.148709 432.663304 99.075133 442.997362 102.576351 453.142068 
C 106.077569 463.286774 110.148014 473.225998 114.768301 482.912408 
C 131.257678 498.597932 150.736145 510.806046 172.041127 518.808106 
C 193.346109 526.810165 216.045137 530.443737 238.783415 529.491951 
C 261.521694 528.540165 283.83766 523.022341 304.399381 513.267812 
C 324.961102 503.513283 343.351197 489.720055 358.472049 472.71138 
C 361.944437 455.272138 361.930139 437.316745 358.429981 419.883056 
C 354.929823 402.449366 348.012569 385.879878 338.078048 371.132338 
C 328.143527 356.384798 315.38691 343.748933 300.545554 333.955119 
C 285.704199 324.161305 269.069673 317.401949 251.603483 314.067754 
C 234.137294 310.733559 216.182577 310.890027 198.777148 314.528115 
C 181.371719 318.166203 164.857521 325.214438 150.189105 335.265418 
C 135.520689 345.316399 122.986227 358.172666 113.310234 373.091104 
C 103.634241 388.009542 97.006808 404.697067 93.811015 422.189109 
" clip-path="url(#p8bcfddfa26)" style="fill: #8f9091; opacity: 0.4"/>
   </g>
   <g id="text_1">
    <!-- 40 -->
    <g style="fill: #262626" transform="translate(67.893119 351.399945)scale(0.1 -0.1)">
     <defs>
      <path id="ArialMT-34" d="M 2069 0 
L 2069 1097 
L 81 1097 
L 81 1613 
L 2172 4581 
L 2631 4581 
L 2631 1613 
L 3250 1613 
L 3250 1097 
L 2631 1097 
L 2631 0 
L 2069 0 
z
M 2069 1613 
L 2069 3678 
L 634 1613 
L 2069 1613 
z
" transform="scale(0.015625)"/>
      <path id="ArialMT-30" d="M 266 2259 
Q 266 3072 433 3567 
Q 600 4063 929 4331 
Q 1259 4600 1759 4600 
Q 2128 4600 2406 4451 
Q 2684 4303 2865 4023 
Q 3047 3744 3150 3342 
Q 3253 2941 3253 2259 
Q 3253 1453 3087 958 
Q 2922 463 2592 192 
Q 2263 -78 1759 -78 
Q 1097 -78 719 397 
Q 266 969 266 2259 
z
M 844 2259 
Q 844 1131 1108 757 
Q 1372 384 1759 384 
Q 2147 384 2411 759 
Q 2675 1134 2675 2259 
Q 2675 3391 2411 3762 
Q 2147 4134 1753 4134 
Q 1366 4134 1134 3806 
Q 844 3388 844 2259 
z
" transform="scale(0.015625)"/>
     </defs>
     <use xlink:href="#ArialMT-34"/>
     <use xlink:href="#ArialMT-30" x="55.615234"/>
    </g>
   </g>
   <g id="text_2">
    <!-- 1516 -->
    <g style="fill: #262626" transform="translate(483.73669 330.345332)scale(0.1 -0.1)">
     <defs>
      <path id="ArialMT-31" d="M 2384 0 
L 1822 0 
L 1822 3584 
Q 1619 3391 1289 3197 
Q 959 3003 697 2906 
L 697 3450 
Q 1169 3672 1522 3987 
Q 1875 4303 2022 4600 
L 2384 4600 
L 2384 0 
z
" transform="scale(0.015625)"/>
      <path id="ArialMT-35" d="M 266 1200 
L 856 1250 
Q 922 819 1161 601 
Q 1400 384 1738 384 
Q 2144 384 2425 690 
Q 2706 997 2706 1503 
Q 2706 1984 2436 2262 
Q 2166 2541 1728 2541 
Q 1456 2541 1237 2417 
Q 1019 2294 894 2097 
L 366 2166 
L 809 4519 
L 3088 4519 
L 3088 3981 
L 1259 3981 
L 1013 2750 
Q 1425 3038 1878 3038 
Q 2478 3038 2890 2622 
Q 3303 2206 3303 1553 
Q 3303 931 2941 478 
Q 2500 -78 1738 -78 
Q 1113 -78 717 272 
Q 322 622 266 1200 
z
" transform="scale(0.015625)"/>
      <path id="ArialMT-36" d="M 3184 3459 
L 2625 3416 
Q 2550 3747 2413 3897 
Q 2184 4138 1850 4138 
Q 1581 4138 1378 3988 
Q 1113 3794 959 3422 
Q 806 3050 800 2363 
Q 1003 2672 1297 2822 
Q 1591 2972 1913 2972 
Q 2475 2972 2870 2558 
Q 3266 2144 3266 1488 
Q 3266 1056 3080 686 
Q 2894 316 2569 119 
Q 2244 -78 1831 -78 
Q 1128 -78 684 439 
Q 241 956 241 2144 
Q 241 3472 731 4075 
Q 1159 4600 1884 4600 
Q 2425 4600 2770 4297 
Q 3116 3994 3184 3459 
z
M 888 1484 
Q 888 1194 1011 928 
Q 1134 663 1356 523 
Q 1578 384 1822 384 
Q 2178 384 2434 671 
Q 2691 959 2691 1453 
Q 2691 1928 2437 2201 
Q 2184 2475 1800 2475 
Q 1419 2475 1153 2201 
Q 888 1928 888 1484 
z
" transform="scale(0.015625)"/>
     </defs>
     <use xlink:href="#ArialMT-31"/>
     <use xlink:href="#ArialMT-35" x="55.615234"/>
     <use xlink:href="#ArialMT-31" x="111.230469"/>
     <use xlink:href="#ArialMT-36" x="166.845703"/>
    </g>
   </g>
   <g id="text_3">
    <!-- 384 -->
    <g style="fill: #262626" transform="translate(271.088817 284.196298)scale(0.1 -0.1)">
     <defs>
      <path id="ArialMT-33" d="M 269 1209 
L 831 1284 
Q 928 806 1161 595 
Q 1394 384 1728 384 
Q 2125 384 2398 659 
Q 2672 934 2672 1341 
Q 2672 1728 2419 1979 
Q 2166 2231 1775 2231 
Q 1616 2231 1378 2169 
L 1441 2663 
Q 1497 2656 1531 2656 
Q 1891 2656 2178 2843 
Q 2466 3031 2466 3422 
Q 2466 3731 2256 3934 
Q 2047 4138 1716 4138 
Q 1388 4138 1169 3931 
Q 950 3725 888 3313 
L 325 3413 
Q 428 3978 793 4289 
Q 1159 4600 1703 4600 
Q 2078 4600 2393 4439 
Q 2709 4278 2876 4000 
Q 3044 3722 3044 3409 
Q 3044 3113 2884 2869 
Q 2725 2625 2413 2481 
Q 2819 2388 3044 2092 
Q 3269 1797 3269 1353 
Q 3269 753 2831 336 
Q 2394 -81 1725 -81 
Q 1122 -81 723 278 
Q 325 638 269 1209 
z
" transform="scale(0.015625)"/>
      <path id="ArialMT-38" d="M 1131 2484 
Q 781 2613 612 2850 
Q 444 3088 444 3419 
Q 444 3919 803 4259 
Q 1163 4600 1759 4600 
Q 2359 4600 2725 4251 
Q 3091 3903 3091 3403 
Q 3091 3084 2923 2848 
Q 2756 2613 2416 2484 
Q 2838 2347 3058 2040 
Q 3278 1734 3278 1309 
Q 3278 722 2862 322 
Q 2447 -78 1769 -78 
Q 1091 -78 675 323 
Q 259 725 259 1325 
Q 259 1772 486 2073 
Q 713 2375 1131 2484 
z
M 1019 3438 
Q 1019 3113 1228 2906 
Q 1438 2700 1772 2700 
Q 2097 2700 2305 2904 
Q 2513 3109 2513 3406 
Q 2513 3716 2298 3927 
Q 2084 4138 1766 4138 
Q 1444 4138 1231 3931 
Q 1019 3725 1019 3438 
z
M 838 1322 
Q 838 1081 952 856 
Q 1066 631 1291 507 
Q 1516 384 1775 384 
Q 2178 384 2440 643 
Q 2703 903 2703 1303 
Q 2703 1709 2433 1975 
Q 2163 2241 1756 2241 
Q 1359 2241 1098 1978 
Q 838 1716 838 1322 
z
" transform="scale(0.015625)"/>
     </defs>
     <use xlink:href="#ArialMT-33"/>
     <use xlink:href="#ArialMT-38" x="55.615234"/>
     <use xlink:href="#ArialMT-34" x="111.230469"/>
    </g>
   </g>
   <g id="text_4">
    <!-- 21 -->
    <g style="fill: #262626" transform="translate(117.975019 525.507301)scale(0.1 -0.1)">
     <defs>
      <path id="ArialMT-32" d="M 3222 541 
L 3222 0 
L 194 0 
Q 188 203 259 391 
Q 375 700 629 1000 
Q 884 1300 1366 1694 
Q 2113 2306 2375 2664 
Q 2638 3022 2638 3341 
Q 2638 3675 2398 3904 
Q 2159 4134 1775 4134 
Q 1369 4134 1125 3890 
Q 881 3647 878 3216 
L 300 3275 
Q 359 3922 746 4261 
Q 1134 4600 1788 4600 
Q 2447 4600 2831 4234 
Q 3216 3869 3216 3328 
Q 3216 3053 3103 2787 
Q 2991 2522 2730 2228 
Q 2469 1934 1863 1422 
Q 1356 997 1212 845 
Q 1069 694 975 541 
L 3222 541 
z
" transform="scale(0.015625)"/>
     </defs>
     <use xlink:href="#ArialMT-32"/>
     <use xlink:href="#ArialMT-31" x="55.615234"/>
    </g>
   </g>
   <g id="text_5">
    <!-- 1 -->
    <g style="fill: #262626" transform="translate(95.84981 455.693556)scale(0.1 -0.1)">
     <use xlink:href="#ArialMT-31"/>
    </g>
   </g>
   <g id="text_6">
    <!-- 88 -->
    <g style="fill: #262626" transform="translate(248.251353 547.657224)scale(0.1 -0.1)">
     <use xlink:href="#ArialMT-38"/>
     <use xlink:href="#ArialMT-38" x="55.615234"/>
    </g>
   </g>
   <g id="text_7">
    <!-- 428 -->
    <g style="fill: #262626" transform="translate(232.400212 392.244791)scale(0.1 -0.1)">
     <use xlink:href="#ArialMT-34"/>
     <use xlink:href="#ArialMT-32" x="55.615234"/>
     <use xlink:href="#ArialMT-38" x="111.230469"/>
    </g>
   </g>
   <g id="text_8">
    <!-- Effect -->
    <g style="fill: #262626" transform="translate(116.399833 190.359629)scale(0.12 -0.12)">
     <defs>
      <path id="ArialMT-45" d="M 506 0 
L 506 4581 
L 3819 4581 
L 3819 4041 
L 1113 4041 
L 1113 2638 
L 3647 2638 
L 3647 2100 
L 1113 2100 
L 1113 541 
L 3925 541 
L 3925 0 
L 506 0 
z
" transform="scale(0.015625)"/>
      <path id="ArialMT-66" d="M 556 0 
L 556 2881 
L 59 2881 
L 59 3319 
L 556 3319 
L 556 3672 
Q 556 4006 616 4169 
Q 697 4388 901 4523 
Q 1106 4659 1475 4659 
Q 1713 4659 2000 4603 
L 1916 4113 
Q 1741 4144 1584 4144 
Q 1328 4144 1222 4034 
Q 1116 3925 1116 3625 
L 1116 3319 
L 1763 3319 
L 1763 2881 
L 1116 2881 
L 1116 0 
L 556 0 
z
" transform="scale(0.015625)"/>
      <path id="ArialMT-65" d="M 2694 1069 
L 3275 997 
Q 3138 488 2766 206 
Q 2394 -75 1816 -75 
Q 1088 -75 661 373 
Q 234 822 234 1631 
Q 234 2469 665 2931 
Q 1097 3394 1784 3394 
Q 2450 3394 2872 2941 
Q 3294 2488 3294 1666 
Q 3294 1616 3291 1516 
L 816 1516 
Q 847 969 1125 678 
Q 1403 388 1819 388 
Q 2128 388 2347 550 
Q 2566 713 2694 1069 
z
M 847 1978 
L 2700 1978 
Q 2663 2397 2488 2606 
Q 2219 2931 1791 2931 
Q 1403 2931 1139 2672 
Q 875 2413 847 1978 
z
" transform="scale(0.015625)"/>
      <path id="ArialMT-63" d="M 2588 1216 
L 3141 1144 
Q 3050 572 2676 248 
Q 2303 -75 1759 -75 
Q 1078 -75 664 370 
Q 250 816 250 1647 
Q 250 2184 428 2587 
Q 606 2991 970 3192 
Q 1334 3394 1763 3394 
Q 2303 3394 2647 3120 
Q 2991 2847 3088 2344 
L 2541 2259 
Q 2463 2594 2264 2762 
Q 2066 2931 1784 2931 
Q 1359 2931 1093 2626 
Q 828 2322 828 1663 
Q 828 994 1084 691 
Q 1341 388 1753 388 
Q 2084 388 2306 591 
Q 2528 794 2588 1216 
z
" transform="scale(0.015625)"/>
      <path id="ArialMT-74" d="M 1650 503 
L 1731 6 
Q 1494 -44 1306 -44 
Q 1000 -44 831 53 
Q 663 150 594 308 
Q 525 466 525 972 
L 525 2881 
L 113 2881 
L 113 3319 
L 525 3319 
L 525 4141 
L 1084 4478 
L 1084 3319 
L 1650 3319 
L 1650 2881 
L 1084 2881 
L 1084 941 
Q 1084 700 1114 631 
Q 1144 563 1211 522 
Q 1278 481 1403 481 
Q 1497 481 1650 503 
z
" transform="scale(0.015625)"/>
     </defs>
     <use xlink:href="#ArialMT-45"/>
     <use xlink:href="#ArialMT-66" x="66.699219"/>
     <use xlink:href="#ArialMT-66" x="92.732422"/>
     <use xlink:href="#ArialMT-65" x="120.515625"/>
     <use xlink:href="#ArialMT-63" x="176.130859"/>
     <use xlink:href="#ArialMT-74" x="226.130859"/>
    </g>
   </g>
   <g id="text_9">
    <!-- No-Effect -->
    <g style="fill: #262626" transform="translate(515.202572 74.501939)scale(0.12 -0.12)">
     <defs>
      <path id="ArialMT-4e" d="M 488 0 
L 488 4581 
L 1109 4581 
L 3516 984 
L 3516 4581 
L 4097 4581 
L 4097 0 
L 3475 0 
L 1069 3600 
L 1069 0 
L 488 0 
z
" transform="scale(0.015625)"/>
      <path id="ArialMT-6f" d="M 213 1659 
Q 213 2581 725 3025 
Q 1153 3394 1769 3394 
Q 2453 3394 2887 2945 
Q 3322 2497 3322 1706 
Q 3322 1066 3130 698 
Q 2938 331 2570 128 
Q 2203 -75 1769 -75 
Q 1072 -75 642 372 
Q 213 819 213 1659 
z
M 791 1659 
Q 791 1022 1069 705 
Q 1347 388 1769 388 
Q 2188 388 2466 706 
Q 2744 1025 2744 1678 
Q 2744 2294 2464 2611 
Q 2184 2928 1769 2928 
Q 1347 2928 1069 2612 
Q 791 2297 791 1659 
z
" transform="scale(0.015625)"/>
      <path id="ArialMT-2d" d="M 203 1375 
L 203 1941 
L 1931 1941 
L 1931 1375 
L 203 1375 
z
" transform="scale(0.015625)"/>
     </defs>
     <use xlink:href="#ArialMT-4e"/>
     <use xlink:href="#ArialMT-6f" x="72.216797"/>
     <use xlink:href="#ArialMT-2d" x="127.832031"/>
     <use xlink:href="#ArialMT-45" x="161.132812"/>
     <use xlink:href="#ArialMT-66" x="227.832031"/>
     <use xlink:href="#ArialMT-66" x="253.865234"/>
     <use xlink:href="#ArialMT-65" x="281.648438"/>
     <use xlink:href="#ArialMT-63" x="337.263672"/>
     <use xlink:href="#ArialMT-74" x="387.263672"/>
    </g>
   </g>
   <g id="text_10">
    <!-- Cyto -->
    <g style="fill: #262626" transform="translate(214.004993 603.33474)scale(0.12 -0.12)">
     <defs>
      <path id="ArialMT-43" d="M 3763 1606 
L 4369 1453 
Q 4178 706 3683 314 
Q 3188 -78 2472 -78 
Q 1731 -78 1267 223 
Q 803 525 561 1097 
Q 319 1669 319 2325 
Q 319 3041 592 3573 
Q 866 4106 1370 4382 
Q 1875 4659 2481 4659 
Q 3169 4659 3637 4309 
Q 4106 3959 4291 3325 
L 3694 3184 
Q 3534 3684 3231 3912 
Q 2928 4141 2469 4141 
Q 1941 4141 1586 3887 
Q 1231 3634 1087 3207 
Q 944 2781 944 2328 
Q 944 1744 1114 1308 
Q 1284 872 1643 656 
Q 2003 441 2422 441 
Q 2931 441 3284 734 
Q 3638 1028 3763 1606 
z
" transform="scale(0.015625)"/>
      <path id="ArialMT-79" d="M 397 -1278 
L 334 -750 
Q 519 -800 656 -800 
Q 844 -800 956 -737 
Q 1069 -675 1141 -563 
Q 1194 -478 1313 -144 
Q 1328 -97 1363 -6 
L 103 3319 
L 709 3319 
L 1400 1397 
Q 1534 1031 1641 628 
Q 1738 1016 1872 1384 
L 2581 3319 
L 3144 3319 
L 1881 -56 
Q 1678 -603 1566 -809 
Q 1416 -1088 1222 -1217 
Q 1028 -1347 759 -1347 
Q 597 -1347 397 -1278 
z
" transform="scale(0.015625)"/>
     </defs>
     <use xlink:href="#ArialMT-43"/>
     <use xlink:href="#ArialMT-79" x="72.216797"/>
     <use xlink:href="#ArialMT-74" x="122.216797"/>
     <use xlink:href="#ArialMT-6f" x="150"/>
    </g>
   </g>
  </g>
 </g>
 <defs>
  <clipPath id="p8bcfddfa26">
   <rect x="10.8" y="23.253542" width="698.4" height="673.492917"/>
  </clipPath>
 </defs>
</svg>
