<?xml version="1.0" encoding="utf-8" standalone="no"?>
<!DOCTYPE svg PUBLIC "-//W3C//DTD SVG 1.1//EN"
  "http://www.w3.org/Graphics/SVG/1.1/DTD/svg11.dtd">
<svg xmlns:xlink="http://www.w3.org/1999/xlink" width="720pt" height="720pt" viewBox="0 0 720 720" xmlns="http://www.w3.org/2000/svg" version="1.1">
 <metadata>
  <rdf:RDF xmlns:dc="http://purl.org/dc/elements/1.1/" xmlns:cc="http://creativecommons.org/ns#" xmlns:rdf="http://www.w3.org/1999/02/22-rdf-syntax-ns#">
   <cc:Work>
    <dc:type rdf:resource="http://purl.org/dc/dcmitype/StillImage"/>
    <dc:date>2022-12-23T09:41:54.618401</dc:date>
    <dc:format>image/svg+xml</dc:format>
    <dc:creator>
     <cc:Agent>
      <dc:title>Matplotlib v3.5.2, https://matplotlib.org/</dc:title>
     </cc:Agent>
    </dc:creator>
   </cc:Work>
  </rdf:RDF>
 </metadata>
 <defs>
  <style type="text/css">*{stroke-linejoin: round; stroke-linecap: butt}</style>
 </defs>
 <g id="figure_1">
  <g id="patch_1">
   <path d="M 0 720 
L 720 720 
L 720 0 
L 0 0 
L 0 720 
z
" style="fill: none"/>
  </g>
  <g id="axes_1">
   <g id="patch_2">
    <path d="M 137.688146 202.772508 
C 114.730199 221.014786 96.043955 244.066012 82.94642 270.301534 
C 69.848885 296.537056 62.655167 325.325686 61.87228 354.638398 
C 61.089393 383.951111 66.736172 413.082686 78.414632 439.979928 
C 90.093091 466.87717 107.522264 490.89297 129.473743 510.334694 
C 125.887174 504.202318 122.6968 497.846656 119.922192 491.306696 
C 117.147583 484.766737 114.794426 478.055882 112.877155 471.215298 
C 94.451007 427.91977 87.070279 380.716084 91.400764 333.862348 
C 95.73125 287.008613 111.638699 241.957351 137.688146 202.772508 
" clip-path="url(#pd0335c768f)" style="fill: #c44e52; opacity: 0.4"/>
   </g>
   <g id="patch_3">
    <path d="M 137.688146 202.772508 
C 174.368633 173.626362 220.116916 158.21556 266.956351 159.227122 
C 313.795786 160.238683 358.836091 177.610188 394.224063 208.31275 
C 429.612036 239.015313 453.164019 281.154396 460.773504 327.382652 
C 468.382989 373.610908 459.580423 421.075769 435.900616 461.501289 
C 429.880714 489.316035 416.828207 515.128152 397.994346 536.463216 
C 379.160485 557.79828 355.166957 573.95204 328.313853 583.37595 
C 301.460749 592.79986 272.634464 595.182846 244.598369 590.296466 
C 216.562275 585.410087 190.241817 573.415638 168.16015 555.462942 
C 188.305843 576.698489 211.613991 594.692437 237.257604 608.806347 
C 262.901218 622.920258 290.573382 632.985209 319.292269 638.644089 
C 348.011156 644.302969 377.433045 645.488049 406.514024 642.157283 
C 435.595004 638.826517 463.987021 631.019768 490.682705 619.014026 
C 517.378388 607.008284 542.058234 590.947239 563.846581 571.400748 
C 585.634928 551.854257 604.271004 529.056262 619.093589 503.815652 
C 633.916173 478.575042 644.747861 451.193909 651.204337 422.643754 
C 657.660813 394.0936 659.664803 364.716127 657.145204 335.553668 
C 654.625604 306.391209 647.612572 277.792795 636.354933 250.773118 
C 625.097294 223.75344 609.729786 198.635884 590.797659 176.311638 
C 571.865532 153.987393 549.595375 134.723644 524.777348 119.203884 
C 499.959321 103.684125 472.890459 92.094102 444.531185 84.845038 
C 416.17191 77.595974 386.86164 74.774629 357.640323 76.481107 
C 328.419007 78.187585 299.636379 84.401462 272.313669 94.902265 
C 244.990958 105.403067 219.455174 120.065117 196.612347 138.368194 
C 173.76952 156.671271 153.893042 178.396316 137.688146 202.772508 
" clip-path="url(#pd0335c768f)" style="fill: #55a868; opacity: 0.4"/>
   </g>
   <g id="patch_4">
    <path d="M 137.688146 202.772508 
C 111.638699 241.957351 95.73125 287.008613 91.400764 333.862348 
C 87.070279 380.716084 94.451007 427.91977 112.877155 471.215298 
C 106.056184 446.878922 104.865737 421.305815 109.396356 396.441014 
C 113.926974 371.576213 124.060808 348.066505 139.027099 327.699989 
C 153.99339 307.333473 173.402832 290.639926 195.779184 278.889024 
C 218.155536 267.138122 242.916742 260.635531 268.179514 259.875825 
C 293.442287 259.116119 318.549488 264.11906 341.591517 274.504134 
C 364.633545 284.889207 385.011028 300.386276 401.174097 319.816666 
C 417.337166 339.247055 428.865385 362.105339 434.881942 386.652964 
C 440.898498 411.200588 441.246889 436.799018 435.900616 461.501289 
C 459.580423 421.075769 468.382989 373.610908 460.773504 327.382652 
C 453.164019 281.154396 429.612036 239.015313 394.224063 208.31275 
C 358.836091 177.610188 313.795786 160.238683 266.956351 159.227122 
C 220.116916 158.21556 174.368633 173.626362 137.688146 202.772508 
" clip-path="url(#pd0335c768f)" style="fill: #c5ac82; opacity: 0.4"/>
   </g>
   <g id="patch_5">
    <path d="M 129.473743 510.334694 
C 134.505533 518.938136 140.299764 527.072369 146.786593 534.639348 
C 153.273422 542.206327 160.426682 549.175526 168.16015 555.462942 
C 162.543976 549.54294 157.185557 543.383637 152.09981 537.002179 
C 147.014063 530.620721 142.205713 524.023036 137.688146 517.227492 
C 136.288708 516.115506 134.904179 514.984885 133.534929 513.835931 
C 132.165679 512.686978 130.811829 511.519795 129.473743 510.334694 
" clip-path="url(#pd0335c768f)" style="fill: #4c72b0; opacity: 0.4"/>
   </g>
   <g id="patch_6">
    <path d="M 129.473743 510.334694 
C 130.811829 511.519795 132.165679 512.686978 133.534929 513.835931 
C 134.904179 514.984885 136.288708 516.115506 137.688146 517.227492 
C 132.857065 509.960346 128.363493 502.474394 124.221735 494.793469 
C 120.079977 487.112544 116.294434 479.244805 112.877155 471.215298 
C 114.794426 478.055882 117.147583 484.766737 119.922192 491.306696 
C 122.6968 497.846656 125.887174 504.202318 129.473743 510.334694 
" clip-path="url(#pd0335c768f)" style="fill: #be86b5; opacity: 0.4"/>
   </g>
   <g id="patch_7">
    <path d="M 435.900616 461.501289 
C 421.361758 486.321629 401.65835 507.73091 378.127763 524.275973 
C 354.597176 540.821036 327.784115 552.118884 299.508521 557.402672 
C 271.232927 562.68646 242.149345 561.833876 214.23183 554.902788 
C 186.314314 547.9717 160.209122 535.122556 137.688146 517.227492 
C 142.205713 524.023036 147.014063 530.620721 152.09981 537.002179 
C 157.185557 543.383637 162.543976 549.54294 168.16015 555.462942 
C 190.241817 573.415638 216.562275 585.410087 244.598369 590.296466 
C 272.634464 595.182846 301.460749 592.79986 328.313853 583.37595 
C 355.166957 573.95204 379.160485 557.79828 397.994346 536.463216 
C 416.828207 515.128152 429.880714 489.316035 435.900616 461.501289 
" clip-path="url(#pd0335c768f)" style="fill: #71c5c4; opacity: 0.4"/>
   </g>
   <g id="patch_8">
    <path d="M 112.877155 471.215298 
C 116.294434 479.244805 120.079977 487.112544 124.221735 494.793469 
C 128.363493 502.474394 132.857065 509.960346 137.688146 517.227492 
C 160.209122 535.122556 186.314314 547.9717 214.23183 554.902788 
C 242.149345 561.833876 271.232927 562.68646 299.508521 557.402672 
C 327.784115 552.118884 354.597176 540.821036 378.127763 524.275973 
C 401.65835 507.73091 421.361758 486.321629 435.900616 461.501289 
C 441.246889 436.799018 440.898498 411.200588 434.881942 386.652964 
C 428.865385 362.105339 417.337166 339.247055 401.174097 319.816666 
C 385.011028 300.386276 364.633545 284.889207 341.591517 274.504134 
C 318.549488 264.11906 293.442287 259.116119 268.179514 259.875825 
C 242.916742 260.635531 218.155536 267.138122 195.779184 278.889024 
C 173.402832 290.639926 153.99339 307.333473 139.027099 327.699989 
C 124.060808 348.066505 113.926974 371.576213 109.396356 396.441014 
C 104.865737 421.305815 106.056184 446.878922 112.877155 471.215298 
" clip-path="url(#pd0335c768f)" style="fill: #8f9091; opacity: 0.4"/>
   </g>
   <g id="text_1">
    <!-- 29 -->
    <g style="fill: #262626" transform="translate(71.046586 362.049276)scale(0.1 -0.1)">
     <defs>
      <path id="ArialMT-32" d="M 3222 541 
L 3222 0 
L 194 0 
Q 188 203 259 391 
Q 375 700 629 1000 
Q 884 1300 1366 1694 
Q 2113 2306 2375 2664 
Q 2638 3022 2638 3341 
Q 2638 3675 2398 3904 
Q 2159 4134 1775 4134 
Q 1369 4134 1125 3890 
Q 881 3647 878 3216 
L 300 3275 
Q 359 3922 746 4261 
Q 1134 4600 1788 4600 
Q 2447 4600 2831 4234 
Q 3216 3869 3216 3328 
Q 3216 3053 3103 2787 
Q 2991 2522 2730 2228 
Q 2469 1934 1863 1422 
Q 1356 997 1212 845 
Q 1069 694 975 541 
L 3222 541 
z
" transform="scale(0.015625)"/>
      <path id="ArialMT-39" d="M 350 1059 
L 891 1109 
Q 959 728 1153 556 
Q 1347 384 1650 384 
Q 1909 384 2104 503 
Q 2300 622 2425 820 
Q 2550 1019 2634 1356 
Q 2719 1694 2719 2044 
Q 2719 2081 2716 2156 
Q 2547 1888 2255 1720 
Q 1963 1553 1622 1553 
Q 1053 1553 659 1965 
Q 266 2378 266 3053 
Q 266 3750 677 4175 
Q 1088 4600 1706 4600 
Q 2153 4600 2523 4359 
Q 2894 4119 3086 3673 
Q 3278 3228 3278 2384 
Q 3278 1506 3087 986 
Q 2897 466 2520 194 
Q 2144 -78 1638 -78 
Q 1100 -78 759 220 
Q 419 519 350 1059 
z
M 2653 3081 
Q 2653 3566 2395 3850 
Q 2138 4134 1775 4134 
Q 1400 4134 1122 3828 
Q 844 3522 844 3034 
Q 844 2597 1108 2323 
Q 1372 2050 1759 2050 
Q 2150 2050 2401 2323 
Q 2653 2597 2653 3081 
z
" transform="scale(0.015625)"/>
     </defs>
     <use xlink:href="#ArialMT-32"/>
     <use xlink:href="#ArialMT-39" x="55.615234"/>
    </g>
   </g>
   <g id="text_2">
    <!-- 560 -->
    <g style="fill: #262626" transform="translate(505.23632 353.821181)scale(0.1 -0.1)">
     <defs>
      <path id="ArialMT-35" d="M 266 1200 
L 856 1250 
Q 922 819 1161 601 
Q 1400 384 1738 384 
Q 2144 384 2425 690 
Q 2706 997 2706 1503 
Q 2706 1984 2436 2262 
Q 2166 2541 1728 2541 
Q 1456 2541 1237 2417 
Q 1019 2294 894 2097 
L 366 2166 
L 809 4519 
L 3088 4519 
L 3088 3981 
L 1259 3981 
L 1013 2750 
Q 1425 3038 1878 3038 
Q 2478 3038 2890 2622 
Q 3303 2206 3303 1553 
Q 3303 931 2941 478 
Q 2500 -78 1738 -78 
Q 1113 -78 717 272 
Q 322 622 266 1200 
z
" transform="scale(0.015625)"/>
      <path id="ArialMT-36" d="M 3184 3459 
L 2625 3416 
Q 2550 3747 2413 3897 
Q 2184 4138 1850 4138 
Q 1581 4138 1378 3988 
Q 1113 3794 959 3422 
Q 806 3050 800 2363 
Q 1003 2672 1297 2822 
Q 1591 2972 1913 2972 
Q 2475 2972 2870 2558 
Q 3266 2144 3266 1488 
Q 3266 1056 3080 686 
Q 2894 316 2569 119 
Q 2244 -78 1831 -78 
Q 1128 -78 684 439 
Q 241 956 241 2144 
Q 241 3472 731 4075 
Q 1159 4600 1884 4600 
Q 2425 4600 2770 4297 
Q 3116 3994 3184 3459 
z
M 888 1484 
Q 888 1194 1011 928 
Q 1134 663 1356 523 
Q 1578 384 1822 384 
Q 2178 384 2434 671 
Q 2691 959 2691 1453 
Q 2691 1928 2437 2201 
Q 2184 2475 1800 2475 
Q 1419 2475 1153 2201 
Q 888 1928 888 1484 
z
" transform="scale(0.015625)"/>
      <path id="ArialMT-30" d="M 266 2259 
Q 266 3072 433 3567 
Q 600 4063 929 4331 
Q 1259 4600 1759 4600 
Q 2128 4600 2406 4451 
Q 2684 4303 2865 4023 
Q 3047 3744 3150 3342 
Q 3253 2941 3253 2259 
Q 3253 1453 3087 958 
Q 2922 463 2592 192 
Q 2263 -78 1759 -78 
Q 1097 -78 719 397 
Q 266 969 266 2259 
z
M 844 2259 
Q 844 1131 1108 757 
Q 1372 384 1759 384 
Q 2147 384 2411 759 
Q 2675 1134 2675 2259 
Q 2675 3391 2411 3762 
Q 2147 4134 1753 4134 
Q 1366 4134 1134 3806 
Q 844 3388 844 2259 
z
" transform="scale(0.015625)"/>
     </defs>
     <use xlink:href="#ArialMT-35"/>
     <use xlink:href="#ArialMT-36" x="55.615234"/>
     <use xlink:href="#ArialMT-30" x="111.230469"/>
    </g>
   </g>
   <g id="text_3">
    <!-- 184 -->
    <g style="fill: #262626" transform="translate(283.462386 253.019991)scale(0.1 -0.1)">
     <defs>
      <path id="ArialMT-31" d="M 2384 0 
L 1822 0 
L 1822 3584 
Q 1619 3391 1289 3197 
Q 959 3003 697 2906 
L 697 3450 
Q 1169 3672 1522 3987 
Q 1875 4303 2022 4600 
L 2384 4600 
L 2384 0 
z
" transform="scale(0.015625)"/>
      <path id="ArialMT-38" d="M 1131 2484 
Q 781 2613 612 2850 
Q 444 3088 444 3419 
Q 444 3919 803 4259 
Q 1163 4600 1759 4600 
Q 2359 4600 2725 4251 
Q 3091 3903 3091 3403 
Q 3091 3084 2923 2848 
Q 2756 2613 2416 2484 
Q 2838 2347 3058 2040 
Q 3278 1734 3278 1309 
Q 3278 722 2862 322 
Q 2447 -78 1769 -78 
Q 1091 -78 675 323 
Q 259 725 259 1325 
Q 259 1772 486 2073 
Q 713 2375 1131 2484 
z
M 1019 3438 
Q 1019 3113 1228 2906 
Q 1438 2700 1772 2700 
Q 2097 2700 2305 2904 
Q 2513 3109 2513 3406 
Q 2513 3716 2298 3927 
Q 2084 4138 1766 4138 
Q 1444 4138 1231 3931 
Q 1019 3725 1019 3438 
z
M 838 1322 
Q 838 1081 952 856 
Q 1066 631 1291 507 
Q 1516 384 1775 384 
Q 2178 384 2440 643 
Q 2703 903 2703 1303 
Q 2703 1709 2433 1975 
Q 2163 2241 1756 2241 
Q 1359 2241 1098 1978 
Q 838 1716 838 1322 
z
" transform="scale(0.015625)"/>
      <path id="ArialMT-34" d="M 2069 0 
L 2069 1097 
L 81 1097 
L 81 1613 
L 2172 4581 
L 2631 4581 
L 2631 1613 
L 3250 1613 
L 3250 1097 
L 2631 1097 
L 2631 0 
L 2069 0 
z
M 2069 1613 
L 2069 3678 
L 634 1613 
L 2069 1613 
z
" transform="scale(0.015625)"/>
     </defs>
     <use xlink:href="#ArialMT-31"/>
     <use xlink:href="#ArialMT-38" x="55.615234"/>
     <use xlink:href="#ArialMT-34" x="111.230469"/>
    </g>
   </g>
   <g id="text_4">
    <!-- 1 -->
    <g style="fill: #262626" transform="translate(144.3621 536.021055)scale(0.1 -0.1)">
     <use xlink:href="#ArialMT-31"/>
    </g>
   </g>
   <g id="text_5">
    <!-- 0 -->
    <g style="fill: #262626" transform="translate(120.219643 497.630848)scale(0.1 -0.1)">
     <use xlink:href="#ArialMT-30"/>
    </g>
   </g>
   <g id="text_6">
    <!-- 35 -->
    <g style="fill: #262626" transform="translate(302.447518 572.59328)scale(0.1 -0.1)">
     <defs>
      <path id="ArialMT-33" d="M 269 1209 
L 831 1284 
Q 928 806 1161 595 
Q 1394 384 1728 384 
Q 2125 384 2398 659 
Q 2672 934 2672 1341 
Q 2672 1728 2419 1979 
Q 2166 2231 1775 2231 
Q 1616 2231 1378 2169 
L 1441 2663 
Q 1497 2656 1531 2656 
Q 1891 2656 2178 2843 
Q 2466 3031 2466 3422 
Q 2466 3731 2256 3934 
Q 2047 4138 1716 4138 
Q 1388 4138 1169 3931 
Q 950 3725 888 3313 
L 325 3413 
Q 428 3978 793 4289 
Q 1159 4600 1703 4600 
Q 2078 4600 2393 4439 
Q 2709 4278 2876 4000 
Q 3044 3722 3044 3409 
Q 3044 3113 2884 2869 
Q 2725 2625 2413 2481 
Q 2819 2388 3044 2092 
Q 3269 1797 3269 1353 
Q 3269 753 2831 336 
Q 2394 -81 1725 -81 
Q 1122 -81 723 278 
Q 325 638 269 1209 
z
" transform="scale(0.015625)"/>
     </defs>
     <use xlink:href="#ArialMT-33"/>
     <use xlink:href="#ArialMT-35" x="55.615234"/>
    </g>
   </g>
   <g id="text_7">
    <!-- 353 -->
    <g style="fill: #262626" transform="translate(264.745319 362.515912)scale(0.1 -0.1)">
     <use xlink:href="#ArialMT-33"/>
     <use xlink:href="#ArialMT-35" x="55.615234"/>
     <use xlink:href="#ArialMT-33" x="111.230469"/>
    </g>
   </g>
   <g id="text_8">
    <!-- Effect -->
    <g style="fill: #262626" transform="translate(131.74179 159.180307)scale(0.12 -0.12)">
     <defs>
      <path id="ArialMT-45" d="M 506 0 
L 506 4581 
L 3819 4581 
L 3819 4041 
L 1113 4041 
L 1113 2638 
L 3647 2638 
L 3647 2100 
L 1113 2100 
L 1113 541 
L 3925 541 
L 3925 0 
L 506 0 
z
" transform="scale(0.015625)"/>
      <path id="ArialMT-66" d="M 556 0 
L 556 2881 
L 59 2881 
L 59 3319 
L 556 3319 
L 556 3672 
Q 556 4006 616 4169 
Q 697 4388 901 4523 
Q 1106 4659 1475 4659 
Q 1713 4659 2000 4603 
L 1916 4113 
Q 1741 4144 1584 4144 
Q 1328 4144 1222 4034 
Q 1116 3925 1116 3625 
L 1116 3319 
L 1763 3319 
L 1763 2881 
L 1116 2881 
L 1116 0 
L 556 0 
z
" transform="scale(0.015625)"/>
      <path id="ArialMT-65" d="M 2694 1069 
L 3275 997 
Q 3138 488 2766 206 
Q 2394 -75 1816 -75 
Q 1088 -75 661 373 
Q 234 822 234 1631 
Q 234 2469 665 2931 
Q 1097 3394 1784 3394 
Q 2450 3394 2872 2941 
Q 3294 2488 3294 1666 
Q 3294 1616 3291 1516 
L 816 1516 
Q 847 969 1125 678 
Q 1403 388 1819 388 
Q 2128 388 2347 550 
Q 2566 713 2694 1069 
z
M 847 1978 
L 2700 1978 
Q 2663 2397 2488 2606 
Q 2219 2931 1791 2931 
Q 1403 2931 1139 2672 
Q 875 2413 847 1978 
z
" transform="scale(0.015625)"/>
      <path id="ArialMT-63" d="M 2588 1216 
L 3141 1144 
Q 3050 572 2676 248 
Q 2303 -75 1759 -75 
Q 1078 -75 664 370 
Q 250 816 250 1647 
Q 250 2184 428 2587 
Q 606 2991 970 3192 
Q 1334 3394 1763 3394 
Q 2303 3394 2647 3120 
Q 2991 2847 3088 2344 
L 2541 2259 
Q 2463 2594 2264 2762 
Q 2066 2931 1784 2931 
Q 1359 2931 1093 2626 
Q 828 2322 828 1663 
Q 828 994 1084 691 
Q 1341 388 1753 388 
Q 2084 388 2306 591 
Q 2528 794 2588 1216 
z
" transform="scale(0.015625)"/>
      <path id="ArialMT-74" d="M 1650 503 
L 1731 6 
Q 1494 -44 1306 -44 
Q 1000 -44 831 53 
Q 663 150 594 308 
Q 525 466 525 972 
L 525 2881 
L 113 2881 
L 113 3319 
L 525 3319 
L 525 4141 
L 1084 4478 
L 1084 3319 
L 1650 3319 
L 1650 2881 
L 1084 2881 
L 1084 941 
Q 1084 700 1114 631 
Q 1144 563 1211 522 
Q 1278 481 1403 481 
Q 1497 481 1650 503 
z
" transform="scale(0.015625)"/>
     </defs>
     <use xlink:href="#ArialMT-45"/>
     <use xlink:href="#ArialMT-66" x="66.699219"/>
     <use xlink:href="#ArialMT-66" x="92.732422"/>
     <use xlink:href="#ArialMT-65" x="120.515625"/>
     <use xlink:href="#ArialMT-63" x="176.130859"/>
     <use xlink:href="#ArialMT-74" x="226.130859"/>
    </g>
   </g>
   <g id="text_9">
    <!-- No-Effect -->
    <g style="fill: #262626" transform="translate(516.198339 75.998066)scale(0.12 -0.12)">
     <defs>
      <path id="ArialMT-4e" d="M 488 0 
L 488 4581 
L 1109 4581 
L 3516 984 
L 3516 4581 
L 4097 4581 
L 4097 0 
L 3475 0 
L 1069 3600 
L 1069 0 
L 488 0 
z
" transform="scale(0.015625)"/>
      <path id="ArialMT-6f" d="M 213 1659 
Q 213 2581 725 3025 
Q 1153 3394 1769 3394 
Q 2453 3394 2887 2945 
Q 3322 2497 3322 1706 
Q 3322 1066 3130 698 
Q 2938 331 2570 128 
Q 2203 -75 1769 -75 
Q 1072 -75 642 372 
Q 213 819 213 1659 
z
M 791 1659 
Q 791 1022 1069 705 
Q 1347 388 1769 388 
Q 2188 388 2466 706 
Q 2744 1025 2744 1678 
Q 2744 2294 2464 2611 
Q 2184 2928 1769 2928 
Q 1347 2928 1069 2612 
Q 791 2297 791 1659 
z
" transform="scale(0.015625)"/>
      <path id="ArialMT-2d" d="M 203 1375 
L 203 1941 
L 1931 1941 
L 1931 1375 
L 203 1375 
z
" transform="scale(0.015625)"/>
     </defs>
     <use xlink:href="#ArialMT-4e"/>
     <use xlink:href="#ArialMT-6f" x="72.216797"/>
     <use xlink:href="#ArialMT-2d" x="127.832031"/>
     <use xlink:href="#ArialMT-45" x="161.132812"/>
     <use xlink:href="#ArialMT-66" x="227.832031"/>
     <use xlink:href="#ArialMT-66" x="253.865234"/>
     <use xlink:href="#ArialMT-65" x="281.648438"/>
     <use xlink:href="#ArialMT-63" x="337.263672"/>
     <use xlink:href="#ArialMT-74" x="387.263672"/>
    </g>
   </g>
   <g id="text_10">
    <!-- Cyto -->
    <g style="fill: #262626" transform="translate(260.847225 618.152931)scale(0.12 -0.12)">
     <defs>
      <path id="ArialMT-43" d="M 3763 1606 
L 4369 1453 
Q 4178 706 3683 314 
Q 3188 -78 2472 -78 
Q 1731 -78 1267 223 
Q 803 525 561 1097 
Q 319 1669 319 2325 
Q 319 3041 592 3573 
Q 866 4106 1370 4382 
Q 1875 4659 2481 4659 
Q 3169 4659 3637 4309 
Q 4106 3959 4291 3325 
L 3694 3184 
Q 3534 3684 3231 3912 
Q 2928 4141 2469 4141 
Q 1941 4141 1586 3887 
Q 1231 3634 1087 3207 
Q 944 2781 944 2328 
Q 944 1744 1114 1308 
Q 1284 872 1643 656 
Q 2003 441 2422 441 
Q 2931 441 3284 734 
Q 3638 1028 3763 1606 
z
" transform="scale(0.015625)"/>
      <path id="ArialMT-79" d="M 397 -1278 
L 334 -750 
Q 519 -800 656 -800 
Q 844 -800 956 -737 
Q 1069 -675 1141 -563 
Q 1194 -478 1313 -144 
Q 1328 -97 1363 -6 
L 103 3319 
L 709 3319 
L 1400 1397 
Q 1534 1031 1641 628 
Q 1738 1016 1872 1384 
L 2581 3319 
L 3144 3319 
L 1881 -56 
Q 1678 -603 1566 -809 
Q 1416 -1088 1222 -1217 
Q 1028 -1347 759 -1347 
Q 597 -1347 397 -1278 
z
" transform="scale(0.015625)"/>
     </defs>
     <use xlink:href="#ArialMT-43"/>
     <use xlink:href="#ArialMT-79" x="72.216797"/>
     <use xlink:href="#ArialMT-74" x="122.216797"/>
     <use xlink:href="#ArialMT-6f" x="150"/>
    </g>
   </g>
  </g>
 </g>
 <defs>
  <clipPath id="pd0335c768f">
   <rect x="10.8" y="24.997372" width="698.4" height="670.005255"/>
  </clipPath>
 </defs>
</svg>
