<?xml version="1.0" encoding="utf-8" standalone="no"?>
<!DOCTYPE svg PUBLIC "-//W3C//DTD SVG 1.1//EN"
  "http://www.w3.org/Graphics/SVG/1.1/DTD/svg11.dtd">
<svg xmlns:xlink="http://www.w3.org/1999/xlink" width="720pt" height="720pt" viewBox="0 0 720 720" xmlns="http://www.w3.org/2000/svg" version="1.1">
 <metadata>
  <rdf:RDF xmlns:dc="http://purl.org/dc/elements/1.1/" xmlns:cc="http://creativecommons.org/ns#" xmlns:rdf="http://www.w3.org/1999/02/22-rdf-syntax-ns#">
   <cc:Work>
    <dc:type rdf:resource="http://purl.org/dc/dcmitype/StillImage"/>
    <dc:date>2022-12-23T09:43:16.939356</dc:date>
    <dc:format>image/svg+xml</dc:format>
    <dc:creator>
     <cc:Agent>
      <dc:title>Matplotlib v3.5.2, https://matplotlib.org/</dc:title>
     </cc:Agent>
    </dc:creator>
   </cc:Work>
  </rdf:RDF>
 </metadata>
 <defs>
  <style type="text/css">*{stroke-linejoin: round; stroke-linecap: butt}</style>
 </defs>
 <g id="figure_1">
  <g id="patch_1">
   <path d="M 0 720 
L 720 720 
L 720 0 
L 0 0 
L 0 720 
z
" style="fill: none"/>
  </g>
  <g id="axes_1">
   <g id="patch_2">
    <path d="M 135.921949 494.937808 
C 113.088205 453.631477 101.10832 407.197381 101.10832 360 
C 101.10832 312.802619 113.088205 266.368523 135.921949 225.062192 
C 113.017923 239.350294 94.124442 259.237409 81.028008 282.843079 
C 67.931574 306.448749 61.058405 333.004737 61.058405 360 
C 61.058405 386.995263 67.931574 413.551251 81.028008 437.156921 
C 94.124442 460.762591 113.017923 480.649706 135.921949 494.937808 
" clip-path="url(#pda6326f020)" style="fill: #c44e52; opacity: 0.4"/>
   </g>
   <g id="patch_3">
    <path d="M 135.921949 225.062192 
C 166.353365 206.078317 202.329774 197.935909 237.96987 201.966064 
C 273.609966 205.996218 306.859712 221.966666 332.283548 247.26661 
C 357.707384 272.566554 373.840064 305.737888 378.04427 341.357872 
C 382.248476 376.977856 374.281908 412.993611 355.446915 443.517399 
C 362.475372 463.759254 363.388629 485.629829 358.072189 506.387174 
C 352.755749 527.144519 341.441479 545.88334 325.547869 560.25432 
C 309.654258 574.625299 289.874478 584.001673 268.688352 587.20791 
C 247.502225 590.414146 225.833747 587.310412 206.399531 578.285826 
C 228.631817 595.969476 253.435792 610.153273 279.951848 620.345661 
C 306.467904 630.53805 334.386146 636.619912 362.739037 638.380473 
C 391.091928 640.141034 419.548107 637.559718 447.121393 630.725985 
C 474.694679 623.892252 501.062822 612.885966 525.312005 598.088564 
C 549.561188 583.291162 571.408011 564.87558 590.095346 543.480032 
C 608.782682 522.084484 624.092132 497.959019 635.493129 471.939733 
C 646.894126 445.920447 654.253428 418.311427 657.315989 390.069495 
C 660.378549 361.827563 659.108577 333.282783 653.550084 305.424406 
C 647.991591 277.566029 638.20954 250.719637 624.542938 225.815622 
C 610.876337 200.911606 593.484906 178.24102 572.971367 158.58954 
C 552.457827 138.938059 529.061921 122.53535 503.594459 109.949867 
C 478.126997 97.364385 450.885618 88.743215 422.814402 84.385135 
C 394.743187 80.027054 366.170204 79.982996 338.085682 84.254487 
C 310.00116 88.525978 282.733324 97.063097 257.227171 109.569981 
C 231.721018 122.076865 208.274638 138.407345 187.700593 157.995471 
C 167.126548 177.583597 149.665287 200.200441 135.921949 225.062192 
M 135.921949 494.937808 
C 138.155936 498.979098 140.489938 502.964288 142.921796 506.889692 
C 145.353655 510.815095 147.88262 514.679502 150.506353 518.479338 
C 149.375716 515.539174 148.372918 512.551432 147.500777 509.524507 
C 146.628636 506.497582 145.88797 503.434312 145.280859 500.343305 
C 143.690986 499.495725 142.11563 498.62119 140.555474 497.720079 
C 138.995318 496.818967 137.450586 495.89141 135.921949 494.937808 
" clip-path="url(#pda6326f020)" style="fill: #55a868; opacity: 0.4"/>
   </g>
   <g id="patch_4">
    <path d="M 135.921949 494.937808 
C 137.450586 495.89141 138.995318 496.818967 140.555474 497.720079 
C 142.11563 498.62119 143.690986 499.495725 145.280859 500.343305 
C 139.959744 473.251692 145.113501 445.125092 159.694626 421.680251 
C 174.275752 398.23541 197.224579 381.176155 223.876747 373.969789 
C 250.528915 366.763422 278.947508 369.933659 303.356433 382.836146 
C 327.765358 395.738633 346.390724 417.435697 355.446915 443.517399 
C 374.281908 412.993611 382.248476 376.977856 378.04427 341.357872 
C 373.840064 305.737888 357.707384 272.566554 332.283548 247.26661 
C 306.859712 221.966666 273.609966 205.996218 237.96987 201.966064 
C 202.329774 197.935909 166.353365 206.078317 135.921949 225.062192 
C 113.088205 266.368523 101.10832 312.802619 101.10832 360 
C 101.10832 407.197381 113.088205 453.631477 135.921949 494.937808 
" clip-path="url(#pda6326f020)" style="fill: #c5ac82; opacity: 0.4"/>
   </g>
   <g id="patch_5">
    <path d="M 150.506353 518.479338 
C 155.541376 531.572665 163.054223 543.573114 172.632586 553.822096 
C 182.210948 564.071078 193.676338 572.37761 206.399531 578.285826 
C 195.6786 569.758355 185.600451 560.452633 176.246937 550.444242 
C 166.893423 540.43585 158.289936 529.751958 150.506353 518.479338 
" clip-path="url(#pda6326f020)" style="fill: #4c72b0; opacity: 0.4"/>
   </g>
   <g id="patch_6">
    <path d="M 355.446915 443.517399 
C 334.215057 477.92552 300.641305 502.974841 261.611298 513.527999 
C 222.581291 524.081157 180.959043 519.363762 145.280859 500.343305 
C 145.88797 503.434312 146.628636 506.497582 147.500777 509.524507 
C 148.372918 512.551432 149.375716 515.539174 150.506353 518.479338 
C 158.289936 529.751958 166.893423 540.43585 176.246937 550.444242 
C 185.600451 560.452633 195.6786 569.758355 206.399531 578.285826 
C 225.833747 587.310412 247.502225 590.414146 268.688352 587.20791 
C 289.874478 584.001673 309.654258 574.625299 325.547869 560.25432 
C 341.441479 545.88334 352.755749 527.144519 358.072189 506.387174 
C 363.388629 485.629829 362.475372 463.759254 355.446915 443.517399 
" clip-path="url(#pda6326f020)" style="fill: #71c5c4; opacity: 0.4"/>
   </g>
   <g id="patch_7">
    <path d="M 145.280859 500.343305 
C 180.959043 519.363762 222.581291 524.081157 261.611298 513.527999 
C 300.641305 502.974841 334.215057 477.92552 355.446915 443.517399 
C 346.390724 417.435697 327.765358 395.738633 303.356433 382.836146 
C 278.947508 369.933659 250.528915 366.763422 223.876747 373.969789 
C 197.224579 381.176155 174.275752 398.23541 159.694626 421.680251 
C 145.113501 445.125092 139.959744 473.251692 145.280859 500.343305 
" clip-path="url(#pda6326f020)" style="fill: #8f9091; opacity: 0.4"/>
   </g>
   <g id="text_1">
    <!-- 29 -->
    <g style="fill: #262626" transform="translate(75.522425 362.585156)scale(0.1 -0.1)">
     <defs>
      <path id="ArialMT-32" d="M 3222 541 
L 3222 0 
L 194 0 
Q 188 203 259 391 
Q 375 700 629 1000 
Q 884 1300 1366 1694 
Q 2113 2306 2375 2664 
Q 2638 3022 2638 3341 
Q 2638 3675 2398 3904 
Q 2159 4134 1775 4134 
Q 1369 4134 1125 3890 
Q 881 3647 878 3216 
L 300 3275 
Q 359 3922 746 4261 
Q 1134 4600 1788 4600 
Q 2447 4600 2831 4234 
Q 3216 3869 3216 3328 
Q 3216 3053 3103 2787 
Q 2991 2522 2730 2228 
Q 2469 1934 1863 1422 
Q 1356 997 1212 845 
Q 1069 694 975 541 
L 3222 541 
z
" transform="scale(0.015625)"/>
      <path id="ArialMT-39" d="M 350 1059 
L 891 1109 
Q 959 728 1153 556 
Q 1347 384 1650 384 
Q 1909 384 2104 503 
Q 2300 622 2425 820 
Q 2550 1019 2634 1356 
Q 2719 1694 2719 2044 
Q 2719 2081 2716 2156 
Q 2547 1888 2255 1720 
Q 1963 1553 1622 1553 
Q 1053 1553 659 1965 
Q 266 2378 266 3053 
Q 266 3750 677 4175 
Q 1088 4600 1706 4600 
Q 2153 4600 2523 4359 
Q 2894 4119 3086 3673 
Q 3278 3228 3278 2384 
Q 3278 1506 3087 986 
Q 2897 466 2520 194 
Q 2144 -78 1638 -78 
Q 1100 -78 759 220 
Q 419 519 350 1059 
z
M 2653 3081 
Q 2653 3566 2395 3850 
Q 2138 4134 1775 4134 
Q 1400 4134 1122 3828 
Q 844 3522 844 3034 
Q 844 2597 1108 2323 
Q 1372 2050 1759 2050 
Q 2150 2050 2401 2323 
Q 2653 2597 2653 3081 
z
" transform="scale(0.015625)"/>
     </defs>
     <use xlink:href="#ArialMT-32"/>
     <use xlink:href="#ArialMT-39" x="55.615234"/>
    </g>
   </g>
   <g id="text_2">
    <!-- 583 -->
    <g style="fill: #262626" transform="translate(480.682717 352.480928)scale(0.1 -0.1)">
     <defs>
      <path id="ArialMT-35" d="M 266 1200 
L 856 1250 
Q 922 819 1161 601 
Q 1400 384 1738 384 
Q 2144 384 2425 690 
Q 2706 997 2706 1503 
Q 2706 1984 2436 2262 
Q 2166 2541 1728 2541 
Q 1456 2541 1237 2417 
Q 1019 2294 894 2097 
L 366 2166 
L 809 4519 
L 3088 4519 
L 3088 3981 
L 1259 3981 
L 1013 2750 
Q 1425 3038 1878 3038 
Q 2478 3038 2890 2622 
Q 3303 2206 3303 1553 
Q 3303 931 2941 478 
Q 2500 -78 1738 -78 
Q 1113 -78 717 272 
Q 322 622 266 1200 
z
" transform="scale(0.015625)"/>
      <path id="ArialMT-38" d="M 1131 2484 
Q 781 2613 612 2850 
Q 444 3088 444 3419 
Q 444 3919 803 4259 
Q 1163 4600 1759 4600 
Q 2359 4600 2725 4251 
Q 3091 3903 3091 3403 
Q 3091 3084 2923 2848 
Q 2756 2613 2416 2484 
Q 2838 2347 3058 2040 
Q 3278 1734 3278 1309 
Q 3278 722 2862 322 
Q 2447 -78 1769 -78 
Q 1091 -78 675 323 
Q 259 725 259 1325 
Q 259 1772 486 2073 
Q 713 2375 1131 2484 
z
M 1019 3438 
Q 1019 3113 1228 2906 
Q 1438 2700 1772 2700 
Q 2097 2700 2305 2904 
Q 2513 3109 2513 3406 
Q 2513 3716 2298 3927 
Q 2084 4138 1766 4138 
Q 1444 4138 1231 3931 
Q 1019 3725 1019 3438 
z
M 838 1322 
Q 838 1081 952 856 
Q 1066 631 1291 507 
Q 1516 384 1775 384 
Q 2178 384 2440 643 
Q 2703 903 2703 1303 
Q 2703 1709 2433 1975 
Q 2163 2241 1756 2241 
Q 1359 2241 1098 1978 
Q 838 1716 838 1322 
z
" transform="scale(0.015625)"/>
      <path id="ArialMT-33" d="M 269 1209 
L 831 1284 
Q 928 806 1161 595 
Q 1394 384 1728 384 
Q 2125 384 2398 659 
Q 2672 934 2672 1341 
Q 2672 1728 2419 1979 
Q 2166 2231 1775 2231 
Q 1616 2231 1378 2169 
L 1441 2663 
Q 1497 2656 1531 2656 
Q 1891 2656 2178 2843 
Q 2466 3031 2466 3422 
Q 2466 3731 2256 3934 
Q 2047 4138 1716 4138 
Q 1388 4138 1169 3931 
Q 950 3725 888 3313 
L 325 3413 
Q 428 3978 793 4289 
Q 1159 4600 1703 4600 
Q 2078 4600 2393 4439 
Q 2709 4278 2876 4000 
Q 3044 3722 3044 3409 
Q 3044 3113 2884 2869 
Q 2725 2625 2413 2481 
Q 2819 2388 3044 2092 
Q 3269 1797 3269 1353 
Q 3269 753 2831 336 
Q 2394 -81 1725 -81 
Q 1122 -81 723 278 
Q 325 638 269 1209 
z
" transform="scale(0.015625)"/>
     </defs>
     <use xlink:href="#ArialMT-35"/>
     <use xlink:href="#ArialMT-38" x="55.615234"/>
     <use xlink:href="#ArialMT-33" x="111.230469"/>
    </g>
   </g>
   <g id="text_3">
    <!-- 176 -->
    <g style="fill: #262626" transform="translate(239.353743 325.459256)scale(0.1 -0.1)">
     <defs>
      <path id="ArialMT-31" d="M 2384 0 
L 1822 0 
L 1822 3584 
Q 1619 3391 1289 3197 
Q 959 3003 697 2906 
L 697 3450 
Q 1169 3672 1522 3987 
Q 1875 4303 2022 4600 
L 2384 4600 
L 2384 0 
z
" transform="scale(0.015625)"/>
      <path id="ArialMT-37" d="M 303 3981 
L 303 4522 
L 3269 4522 
L 3269 4084 
Q 2831 3619 2401 2847 
Q 1972 2075 1738 1259 
Q 1569 684 1522 0 
L 944 0 
Q 953 541 1156 1306 
Q 1359 2072 1739 2783 
Q 2119 3494 2547 3981 
L 303 3981 
z
" transform="scale(0.015625)"/>
      <path id="ArialMT-36" d="M 3184 3459 
L 2625 3416 
Q 2550 3747 2413 3897 
Q 2184 4138 1850 4138 
Q 1581 4138 1378 3988 
Q 1113 3794 959 3422 
Q 806 3050 800 2363 
Q 1003 2672 1297 2822 
Q 1591 2972 1913 2972 
Q 2475 2972 2870 2558 
Q 3266 2144 3266 1488 
Q 3266 1056 3080 686 
Q 2894 316 2569 119 
Q 2244 -78 1831 -78 
Q 1128 -78 684 439 
Q 241 956 241 2144 
Q 241 3472 731 4075 
Q 1159 4600 1884 4600 
Q 2425 4600 2770 4297 
Q 3116 3994 3184 3459 
z
M 888 1484 
Q 888 1194 1011 928 
Q 1134 663 1356 523 
Q 1578 384 1822 384 
Q 2178 384 2434 671 
Q 2691 959 2691 1453 
Q 2691 1928 2437 2201 
Q 2184 2475 1800 2475 
Q 1419 2475 1153 2201 
Q 888 1928 888 1484 
z
" transform="scale(0.015625)"/>
     </defs>
     <use xlink:href="#ArialMT-31"/>
     <use xlink:href="#ArialMT-37" x="55.615234"/>
     <use xlink:href="#ArialMT-36" x="111.230469"/>
    </g>
   </g>
   <g id="text_4">
    <!-- 1 -->
    <g style="fill: #262626" transform="translate(171.659293 554.718325)scale(0.1 -0.1)">
     <use xlink:href="#ArialMT-31"/>
    </g>
   </g>
   <g id="text_5">
    <!-- 50 -->
    <g style="fill: #262626" transform="translate(280.311137 543.807905)scale(0.1 -0.1)">
     <defs>
      <path id="ArialMT-30" d="M 266 2259 
Q 266 3072 433 3567 
Q 600 4063 929 4331 
Q 1259 4600 1759 4600 
Q 2128 4600 2406 4451 
Q 2684 4303 2865 4023 
Q 3047 3744 3150 3342 
Q 3253 2941 3253 2259 
Q 3253 1453 3087 958 
Q 2922 463 2592 192 
Q 2263 -78 1759 -78 
Q 1097 -78 719 397 
Q 266 969 266 2259 
z
M 844 2259 
Q 844 1131 1108 757 
Q 1372 384 1759 384 
Q 2147 384 2411 759 
Q 2675 1134 2675 2259 
Q 2675 3391 2411 3762 
Q 2147 4134 1753 4134 
Q 1366 4134 1134 3806 
Q 844 3388 844 2259 
z
" transform="scale(0.015625)"/>
     </defs>
     <use xlink:href="#ArialMT-35"/>
     <use xlink:href="#ArialMT-30" x="55.615234"/>
    </g>
   </g>
   <g id="text_6">
    <!-- 86 -->
    <g style="fill: #262626" transform="translate(237.183085 446.33405)scale(0.1 -0.1)">
     <use xlink:href="#ArialMT-38"/>
     <use xlink:href="#ArialMT-36" x="55.615234"/>
    </g>
   </g>
   <g id="text_7">
    <!-- Effect -->
    <g style="fill: #262626" transform="translate(110.11021 200.95889)scale(0.12 -0.12)">
     <defs>
      <path id="ArialMT-45" d="M 506 0 
L 506 4581 
L 3819 4581 
L 3819 4041 
L 1113 4041 
L 1113 2638 
L 3647 2638 
L 3647 2100 
L 1113 2100 
L 1113 541 
L 3925 541 
L 3925 0 
L 506 0 
z
" transform="scale(0.015625)"/>
      <path id="ArialMT-66" d="M 556 0 
L 556 2881 
L 59 2881 
L 59 3319 
L 556 3319 
L 556 3672 
Q 556 4006 616 4169 
Q 697 4388 901 4523 
Q 1106 4659 1475 4659 
Q 1713 4659 2000 4603 
L 1916 4113 
Q 1741 4144 1584 4144 
Q 1328 4144 1222 4034 
Q 1116 3925 1116 3625 
L 1116 3319 
L 1763 3319 
L 1763 2881 
L 1116 2881 
L 1116 0 
L 556 0 
z
" transform="scale(0.015625)"/>
      <path id="ArialMT-65" d="M 2694 1069 
L 3275 997 
Q 3138 488 2766 206 
Q 2394 -75 1816 -75 
Q 1088 -75 661 373 
Q 234 822 234 1631 
Q 234 2469 665 2931 
Q 1097 3394 1784 3394 
Q 2450 3394 2872 2941 
Q 3294 2488 3294 1666 
Q 3294 1616 3291 1516 
L 816 1516 
Q 847 969 1125 678 
Q 1403 388 1819 388 
Q 2128 388 2347 550 
Q 2566 713 2694 1069 
z
M 847 1978 
L 2700 1978 
Q 2663 2397 2488 2606 
Q 2219 2931 1791 2931 
Q 1403 2931 1139 2672 
Q 875 2413 847 1978 
z
" transform="scale(0.015625)"/>
      <path id="ArialMT-63" d="M 2588 1216 
L 3141 1144 
Q 3050 572 2676 248 
Q 2303 -75 1759 -75 
Q 1078 -75 664 370 
Q 250 816 250 1647 
Q 250 2184 428 2587 
Q 606 2991 970 3192 
Q 1334 3394 1763 3394 
Q 2303 3394 2647 3120 
Q 2991 2847 3088 2344 
L 2541 2259 
Q 2463 2594 2264 2762 
Q 2066 2931 1784 2931 
Q 1359 2931 1093 2626 
Q 828 2322 828 1663 
Q 828 994 1084 691 
Q 1341 388 1753 388 
Q 2084 388 2306 591 
Q 2528 794 2588 1216 
z
" transform="scale(0.015625)"/>
      <path id="ArialMT-74" d="M 1650 503 
L 1731 6 
Q 1494 -44 1306 -44 
Q 1000 -44 831 53 
Q 663 150 594 308 
Q 525 466 525 972 
L 525 2881 
L 113 2881 
L 113 3319 
L 525 3319 
L 525 4141 
L 1084 4478 
L 1084 3319 
L 1650 3319 
L 1650 2881 
L 1084 2881 
L 1084 941 
Q 1084 700 1114 631 
Q 1144 563 1211 522 
Q 1278 481 1403 481 
Q 1497 481 1650 503 
z
" transform="scale(0.015625)"/>
     </defs>
     <use xlink:href="#ArialMT-45"/>
     <use xlink:href="#ArialMT-66" x="66.699219"/>
     <use xlink:href="#ArialMT-66" x="92.732422"/>
     <use xlink:href="#ArialMT-65" x="120.515625"/>
     <use xlink:href="#ArialMT-63" x="176.130859"/>
     <use xlink:href="#ArialMT-74" x="226.130859"/>
    </g>
   </g>
   <g id="text_8">
    <!-- No-Effect -->
    <g style="fill: #262626" transform="translate(519.483276 81.083363)scale(0.12 -0.12)">
     <defs>
      <path id="ArialMT-4e" d="M 488 0 
L 488 4581 
L 1109 4581 
L 3516 984 
L 3516 4581 
L 4097 4581 
L 4097 0 
L 3475 0 
L 1069 3600 
L 1069 0 
L 488 0 
z
" transform="scale(0.015625)"/>
      <path id="ArialMT-6f" d="M 213 1659 
Q 213 2581 725 3025 
Q 1153 3394 1769 3394 
Q 2453 3394 2887 2945 
Q 3322 2497 3322 1706 
Q 3322 1066 3130 698 
Q 2938 331 2570 128 
Q 2203 -75 1769 -75 
Q 1072 -75 642 372 
Q 213 819 213 1659 
z
M 791 1659 
Q 791 1022 1069 705 
Q 1347 388 1769 388 
Q 2188 388 2466 706 
Q 2744 1025 2744 1678 
Q 2744 2294 2464 2611 
Q 2184 2928 1769 2928 
Q 1347 2928 1069 2612 
Q 791 2297 791 1659 
z
" transform="scale(0.015625)"/>
      <path id="ArialMT-2d" d="M 203 1375 
L 203 1941 
L 1931 1941 
L 1931 1375 
L 203 1375 
z
" transform="scale(0.015625)"/>
     </defs>
     <use xlink:href="#ArialMT-4e"/>
     <use xlink:href="#ArialMT-6f" x="72.216797"/>
     <use xlink:href="#ArialMT-2d" x="127.832031"/>
     <use xlink:href="#ArialMT-45" x="161.132812"/>
     <use xlink:href="#ArialMT-66" x="227.832031"/>
     <use xlink:href="#ArialMT-66" x="253.865234"/>
     <use xlink:href="#ArialMT-65" x="281.648438"/>
     <use xlink:href="#ArialMT-63" x="337.263672"/>
     <use xlink:href="#ArialMT-74" x="387.263672"/>
    </g>
   </g>
   <g id="text_9">
    <!-- Cyto -->
    <g style="fill: #262626" transform="translate(240.023148 608.084574)scale(0.12 -0.12)">
     <defs>
      <path id="ArialMT-43" d="M 3763 1606 
L 4369 1453 
Q 4178 706 3683 314 
Q 3188 -78 2472 -78 
Q 1731 -78 1267 223 
Q 803 525 561 1097 
Q 319 1669 319 2325 
Q 319 3041 592 3573 
Q 866 4106 1370 4382 
Q 1875 4659 2481 4659 
Q 3169 4659 3637 4309 
Q 4106 3959 4291 3325 
L 3694 3184 
Q 3534 3684 3231 3912 
Q 2928 4141 2469 4141 
Q 1941 4141 1586 3887 
Q 1231 3634 1087 3207 
Q 944 2781 944 2328 
Q 944 1744 1114 1308 
Q 1284 872 1643 656 
Q 2003 441 2422 441 
Q 2931 441 3284 734 
Q 3638 1028 3763 1606 
z
" transform="scale(0.015625)"/>
      <path id="ArialMT-79" d="M 397 -1278 
L 334 -750 
Q 519 -800 656 -800 
Q 844 -800 956 -737 
Q 1069 -675 1141 -563 
Q 1194 -478 1313 -144 
Q 1328 -97 1363 -6 
L 103 3319 
L 709 3319 
L 1400 1397 
Q 1534 1031 1641 628 
Q 1738 1016 1872 1384 
L 2581 3319 
L 3144 3319 
L 1881 -56 
Q 1678 -603 1566 -809 
Q 1416 -1088 1222 -1217 
Q 1028 -1347 759 -1347 
Q 597 -1347 397 -1278 
z
" transform="scale(0.015625)"/>
     </defs>
     <use xlink:href="#ArialMT-43"/>
     <use xlink:href="#ArialMT-79" x="72.216797"/>
     <use xlink:href="#ArialMT-74" x="122.216797"/>
     <use xlink:href="#ArialMT-6f" x="150"/>
    </g>
   </g>
  </g>
 </g>
 <defs>
  <clipPath id="pda6326f020">
   <rect x="10.8" y="30.824957" width="698.4" height="658.350086"/>
  </clipPath>
 </defs>
</svg>
