<?xml version="1.0" encoding="utf-8" standalone="no"?>
<!DOCTYPE svg PUBLIC "-//W3C//DTD SVG 1.1//EN"
  "http://www.w3.org/Graphics/SVG/1.1/DTD/svg11.dtd">
<svg xmlns:xlink="http://www.w3.org/1999/xlink" width="720pt" height="720pt" viewBox="0 0 720 720" xmlns="http://www.w3.org/2000/svg" version="1.1">
 <metadata>
  <rdf:RDF xmlns:dc="http://purl.org/dc/elements/1.1/" xmlns:cc="http://creativecommons.org/ns#" xmlns:rdf="http://www.w3.org/1999/02/22-rdf-syntax-ns#">
   <cc:Work>
    <dc:type rdf:resource="http://purl.org/dc/dcmitype/StillImage"/>
    <dc:date>2022-12-23T09:42:39.784392</dc:date>
    <dc:format>image/svg+xml</dc:format>
    <dc:creator>
     <cc:Agent>
      <dc:title>Matplotlib v3.5.2, https://matplotlib.org/</dc:title>
     </cc:Agent>
    </dc:creator>
   </cc:Work>
  </rdf:RDF>
 </metadata>
 <defs>
  <style type="text/css">*{stroke-linejoin: round; stroke-linecap: butt}</style>
 </defs>
 <g id="figure_1">
  <g id="patch_1">
   <path d="M 0 720 
L 720 720 
L 720 0 
L 0 0 
L 0 720 
z
" style="fill: none"/>
  </g>
  <g id="axes_1">
   <g id="patch_2">
    <path d="M 138.081627 247.254997 
C 116.51487 255.478739 97.753971 269.720526 84.035313 288.282675 
C 70.316655 306.844824 62.207901 328.959252 60.675651 351.989822 
C 59.143401 375.020392 64.251057 398.014123 75.389764 418.230061 
C 86.528471 438.445999 103.237322 455.047629 123.524547 466.055964 
C 124.20923 463.418653 125.030926 460.818824 125.986288 458.267062 
C 126.94165 455.7153 128.029381 453.215073 129.245052 450.77656 
C 117.637848 417.863448 112.450323 383.027482 113.964191 348.160474 
C 115.47806 313.293465 123.665414 279.038215 138.081627 247.254997 
" clip-path="url(#pcf7eaa812a)" style="fill: #c44e52; opacity: 0.4"/>
   </g>
   <g id="patch_3">
    <path d="M 138.081627 247.254997 
C 163.87179 237.420805 192.271523 236.727387 218.510898 245.291208 
C 244.750274 253.855028 267.273143 271.168203 282.296638 294.322866 
C 297.320133 317.47753 303.953273 345.100476 301.081976 372.552242 
C 298.210679 400.004009 286.00523 425.656547 266.515618 445.201338 
C 273.446962 456.669294 277.324055 469.724957 277.775374 483.117263 
C 278.226692 496.509569 275.237344 509.79663 269.093784 521.705207 
C 262.950225 533.613785 253.855166 543.750949 242.680144 551.1453 
C 231.505121 558.539651 218.618864 562.947208 205.256203 563.945616 
C 226.601374 582.930375 250.79527 598.446962 276.952993 609.927856 
C 303.110716 621.40875 330.909421 628.71225 359.332363 631.571229 
C 387.755305 634.430208 416.451681 632.809379 444.371914 626.768026 
C 472.292148 620.726672 499.09164 610.339357 523.790193 595.986 
C 548.488746 581.632642 570.781524 563.490394 589.853163 542.222814 
C 608.924802 520.955234 624.539916 496.82481 636.127377 470.71412 
C 647.714838 444.60343 655.131631 416.834737 658.106485 388.42369 
C 661.08134 360.012642 659.577539 331.309895 653.650085 303.365259 
C 647.722631 275.420623 637.444682 248.578997 623.192156 223.822122 
C 608.939631 199.065246 590.888436 176.698675 569.698801 157.540472 
C 548.509165 138.38227 524.442615 122.66889 498.379392 110.975055 
C 472.316169 99.281219 444.577951 91.751256 416.17927 88.660576 
C 387.780589 85.569895 359.071948 86.956643 331.103374 92.770099 
C 303.1348 98.583554 276.251488 108.751967 251.436701 122.903424 
C 226.621914 137.054881 204.181922 155.014721 184.937474 176.12606 
C 165.693027 197.237399 149.881642 221.239674 138.081627 247.254997 
" clip-path="url(#pcf7eaa812a)" style="fill: #55a868; opacity: 0.4"/>
   </g>
   <g id="patch_4">
    <path d="M 138.081627 247.254997 
C 123.665414 279.038215 115.47806 313.293465 113.964191 348.160474 
C 112.450323 383.027482 117.637848 417.863448 129.245052 450.77656 
C 135.50692 438.215884 145.028053 427.563996 156.810254 419.937639 
C 168.592455 412.311283 182.209064 407.986626 196.232515 407.417066 
C 210.255965 406.847506 224.178437 410.053667 236.540297 416.699417 
C 248.902157 423.345166 259.255755 433.189845 266.515618 445.201338 
C 286.00523 425.656547 298.210679 400.004009 301.081976 372.552242 
C 303.953273 345.100476 297.320133 317.47753 282.296638 294.322866 
C 267.273143 271.168203 244.750274 253.855028 218.510898 245.291208 
C 192.271523 236.727387 163.87179 237.420805 138.081627 247.254997 
" clip-path="url(#pcf7eaa812a)" style="fill: #c5ac82; opacity: 0.4"/>
   </g>
   <g id="patch_5">
    <path d="M 123.524547 466.055964 
C 120.391498 478.124067 120.181805 490.767226 122.912931 502.932588 
C 125.644056 515.09795 131.238024 526.438187 139.229 536.008944 
C 147.219976 545.579701 157.379811 553.107727 168.862451 557.96613 
C 180.34509 562.824533 192.822696 564.874601 205.256203 563.945616 
C 191.033968 551.296119 178.173841 537.193557 166.885887 521.868289 
C 155.597932 506.543021 145.943948 490.078948 138.081627 472.745003 
C 135.584725 471.792895 133.120141 470.758104 130.691953 469.642341 
C 128.263764 468.526578 125.87331 467.33046 123.524547 466.055964 
" clip-path="url(#pcf7eaa812a)" style="fill: #4c72b0; opacity: 0.4"/>
   </g>
   <g id="patch_6">
    <path d="M 123.524547 466.055964 
C 125.87331 467.33046 128.263764 468.526578 130.691953 469.642341 
C 133.120141 470.758104 135.584725 471.792895 138.081627 472.745003 
C 136.450852 469.149657 134.898276 465.519353 133.424993 461.856653 
C 131.951711 458.193953 130.558069 454.499719 129.245052 450.77656 
C 128.029381 453.215073 126.94165 455.7153 125.986288 458.267062 
C 125.030926 460.818824 124.20923 463.418653 123.524547 466.055964 
" clip-path="url(#pcf7eaa812a)" style="fill: #be86b5; opacity: 0.4"/>
   </g>
   <g id="patch_7">
    <path d="M 266.515618 445.201338 
C 250.057673 461.705879 229.164829 473.09352 206.374994 477.980977 
C 183.585159 482.868434 159.860053 481.049457 138.081627 472.745003 
C 145.943948 490.078948 155.597932 506.543021 166.885887 521.868289 
C 178.173841 537.193557 191.033968 551.296119 205.256203 563.945616 
C 218.618864 562.947208 231.505121 558.539651 242.680144 551.1453 
C 253.855166 543.750949 262.950225 533.613785 269.093784 521.705207 
C 275.237344 509.79663 278.226692 496.509569 277.775374 483.117263 
C 277.324055 469.724957 273.446962 456.669294 266.515618 445.201338 
" clip-path="url(#pcf7eaa812a)" style="fill: #71c5c4; opacity: 0.4"/>
   </g>
   <g id="patch_8">
    <path d="M 129.245052 450.77656 
C 130.558069 454.499719 131.951711 458.193953 133.424993 461.856653 
C 134.898276 465.519353 136.450852 469.149657 138.081627 472.745003 
C 159.860053 481.049457 183.585159 482.868434 206.374994 477.980977 
C 229.164829 473.09352 250.057673 461.705879 266.515618 445.201338 
C 259.255755 433.189845 248.902157 423.345166 236.540297 416.699417 
C 224.178437 410.053667 210.255965 406.847506 196.232515 407.417066 
C 182.209064 407.986626 168.592455 412.311283 156.810254 419.937639 
C 145.028053 427.563996 135.50692 438.215884 129.245052 450.77656 
" clip-path="url(#pcf7eaa812a)" style="fill: #8f9091; opacity: 0.4"/>
   </g>
   <g id="text_1">
    <!-- 71 -->
    <g style="fill: #262626" transform="translate(71.827268 360.484372)scale(0.1 -0.1)">
     <defs>
      <path id="ArialMT-37" d="M 303 3981 
L 303 4522 
L 3269 4522 
L 3269 4084 
Q 2831 3619 2401 2847 
Q 1972 2075 1738 1259 
Q 1569 684 1522 0 
L 944 0 
Q 953 541 1156 1306 
Q 1359 2072 1739 2783 
Q 2119 3494 2547 3981 
L 303 3981 
z
" transform="scale(0.015625)"/>
      <path id="ArialMT-31" d="M 2384 0 
L 1822 0 
L 1822 3584 
Q 1619 3391 1289 3197 
Q 959 3003 697 2906 
L 697 3450 
Q 1169 3672 1522 3987 
Q 1875 4303 2022 4600 
L 2384 4600 
L 2384 0 
z
" transform="scale(0.015625)"/>
     </defs>
     <use xlink:href="#ArialMT-37"/>
     <use xlink:href="#ArialMT-31" x="55.615234"/>
    </g>
   </g>
   <g id="text_2">
    <!-- 1483 -->
    <g style="fill: #262626" transform="translate(458.931982 349.010144)scale(0.1 -0.1)">
     <defs>
      <path id="ArialMT-34" d="M 2069 0 
L 2069 1097 
L 81 1097 
L 81 1613 
L 2172 4581 
L 2631 4581 
L 2631 1613 
L 3250 1613 
L 3250 1097 
L 2631 1097 
L 2631 0 
L 2069 0 
z
M 2069 1613 
L 2069 3678 
L 634 1613 
L 2069 1613 
z
" transform="scale(0.015625)"/>
      <path id="ArialMT-38" d="M 1131 2484 
Q 781 2613 612 2850 
Q 444 3088 444 3419 
Q 444 3919 803 4259 
Q 1163 4600 1759 4600 
Q 2359 4600 2725 4251 
Q 3091 3903 3091 3403 
Q 3091 3084 2923 2848 
Q 2756 2613 2416 2484 
Q 2838 2347 3058 2040 
Q 3278 1734 3278 1309 
Q 3278 722 2862 322 
Q 2447 -78 1769 -78 
Q 1091 -78 675 323 
Q 259 725 259 1325 
Q 259 1772 486 2073 
Q 713 2375 1131 2484 
z
M 1019 3438 
Q 1019 3113 1228 2906 
Q 1438 2700 1772 2700 
Q 2097 2700 2305 2904 
Q 2513 3109 2513 3406 
Q 2513 3716 2298 3927 
Q 2084 4138 1766 4138 
Q 1444 4138 1231 3931 
Q 1019 3725 1019 3438 
z
M 838 1322 
Q 838 1081 952 856 
Q 1066 631 1291 507 
Q 1516 384 1775 384 
Q 2178 384 2440 643 
Q 2703 903 2703 1303 
Q 2703 1709 2433 1975 
Q 2163 2241 1756 2241 
Q 1359 2241 1098 1978 
Q 838 1716 838 1322 
z
" transform="scale(0.015625)"/>
      <path id="ArialMT-33" d="M 269 1209 
L 831 1284 
Q 928 806 1161 595 
Q 1394 384 1728 384 
Q 2125 384 2398 659 
Q 2672 934 2672 1341 
Q 2672 1728 2419 1979 
Q 2166 2231 1775 2231 
Q 1616 2231 1378 2169 
L 1441 2663 
Q 1497 2656 1531 2656 
Q 1891 2656 2178 2843 
Q 2466 3031 2466 3422 
Q 2466 3731 2256 3934 
Q 2047 4138 1716 4138 
Q 1388 4138 1169 3931 
Q 950 3725 888 3313 
L 325 3413 
Q 428 3978 793 4289 
Q 1159 4600 1703 4600 
Q 2078 4600 2393 4439 
Q 2709 4278 2876 4000 
Q 3044 3722 3044 3409 
Q 3044 3113 2884 2869 
Q 2725 2625 2413 2481 
Q 2819 2388 3044 2092 
Q 3269 1797 3269 1353 
Q 3269 753 2831 336 
Q 2394 -81 1725 -81 
Q 1122 -81 723 278 
Q 325 638 269 1209 
z
" transform="scale(0.015625)"/>
     </defs>
     <use xlink:href="#ArialMT-31"/>
     <use xlink:href="#ArialMT-34" x="55.615234"/>
     <use xlink:href="#ArialMT-38" x="111.230469"/>
     <use xlink:href="#ArialMT-33" x="166.845703"/>
    </g>
   </g>
   <g id="text_3">
    <!-- 231 -->
    <g style="fill: #262626" transform="translate(218.3374 347.213564)scale(0.1 -0.1)">
     <defs>
      <path id="ArialMT-32" d="M 3222 541 
L 3222 0 
L 194 0 
Q 188 203 259 391 
Q 375 700 629 1000 
Q 884 1300 1366 1694 
Q 2113 2306 2375 2664 
Q 2638 3022 2638 3341 
Q 2638 3675 2398 3904 
Q 2159 4134 1775 4134 
Q 1369 4134 1125 3890 
Q 881 3647 878 3216 
L 300 3275 
Q 359 3922 746 4261 
Q 1134 4600 1788 4600 
Q 2447 4600 2831 4234 
Q 3216 3869 3216 3328 
Q 3216 3053 3103 2787 
Q 2991 2522 2730 2228 
Q 2469 1934 1863 1422 
Q 1356 997 1212 845 
Q 1069 694 975 541 
L 3222 541 
z
" transform="scale(0.015625)"/>
     </defs>
     <use xlink:href="#ArialMT-32"/>
     <use xlink:href="#ArialMT-33" x="55.615234"/>
     <use xlink:href="#ArialMT-31" x="111.230469"/>
    </g>
   </g>
   <g id="text_4">
    <!-- 24 -->
    <g style="fill: #262626" transform="translate(137.923573 532.582888)scale(0.1 -0.1)">
     <use xlink:href="#ArialMT-32"/>
     <use xlink:href="#ArialMT-34" x="55.615234"/>
    </g>
   </g>
   <g id="text_5">
    <!-- 0 -->
    <g style="fill: #262626" transform="translate(126.174132 465.110223)scale(0.1 -0.1)">
     <defs>
      <path id="ArialMT-30" d="M 266 2259 
Q 266 3072 433 3567 
Q 600 4063 929 4331 
Q 1259 4600 1759 4600 
Q 2128 4600 2406 4451 
Q 2684 4303 2865 4023 
Q 3047 3744 3150 3342 
Q 3253 2941 3253 2259 
Q 3253 1453 3087 958 
Q 2922 463 2592 192 
Q 2263 -78 1759 -78 
Q 1097 -78 719 397 
Q 266 969 266 2259 
z
M 844 2259 
Q 844 1131 1108 757 
Q 1372 384 1759 384 
Q 2147 384 2411 759 
Q 2675 1134 2675 2259 
Q 2675 3391 2411 3762 
Q 2147 4134 1753 4134 
Q 1366 4134 1134 3806 
Q 844 3388 844 2259 
z
" transform="scale(0.015625)"/>
     </defs>
     <use xlink:href="#ArialMT-30"/>
    </g>
   </g>
   <g id="text_6">
    <!-- 70 -->
    <g style="fill: #262626" transform="translate(231.68972 510.363257)scale(0.1 -0.1)">
     <use xlink:href="#ArialMT-37"/>
     <use xlink:href="#ArialMT-30" x="55.615234"/>
    </g>
   </g>
   <g id="text_7">
    <!-- 58 -->
    <g style="fill: #262626" transform="translate(192.516775 435.481611)scale(0.1 -0.1)">
     <defs>
      <path id="ArialMT-35" d="M 266 1200 
L 856 1250 
Q 922 819 1161 601 
Q 1400 384 1738 384 
Q 2144 384 2425 690 
Q 2706 997 2706 1503 
Q 2706 1984 2436 2262 
Q 2166 2541 1728 2541 
Q 1456 2541 1237 2417 
Q 1019 2294 894 2097 
L 366 2166 
L 809 4519 
L 3088 4519 
L 3088 3981 
L 1259 3981 
L 1013 2750 
Q 1425 3038 1878 3038 
Q 2478 3038 2890 2622 
Q 3303 2206 3303 1553 
Q 3303 931 2941 478 
Q 2500 -78 1738 -78 
Q 1113 -78 717 272 
Q 322 622 266 1200 
z
" transform="scale(0.015625)"/>
     </defs>
     <use xlink:href="#ArialMT-35"/>
     <use xlink:href="#ArialMT-38" x="55.615234"/>
    </g>
   </g>
   <g id="text_8">
    <!-- Effect -->
    <g style="fill: #262626" transform="translate(90.272521 239.336423)scale(0.12 -0.12)">
     <defs>
      <path id="ArialMT-45" d="M 506 0 
L 506 4581 
L 3819 4581 
L 3819 4041 
L 1113 4041 
L 1113 2638 
L 3647 2638 
L 3647 2100 
L 1113 2100 
L 1113 541 
L 3925 541 
L 3925 0 
L 506 0 
z
" transform="scale(0.015625)"/>
      <path id="ArialMT-66" d="M 556 0 
L 556 2881 
L 59 2881 
L 59 3319 
L 556 3319 
L 556 3672 
Q 556 4006 616 4169 
Q 697 4388 901 4523 
Q 1106 4659 1475 4659 
Q 1713 4659 2000 4603 
L 1916 4113 
Q 1741 4144 1584 4144 
Q 1328 4144 1222 4034 
Q 1116 3925 1116 3625 
L 1116 3319 
L 1763 3319 
L 1763 2881 
L 1116 2881 
L 1116 0 
L 556 0 
z
" transform="scale(0.015625)"/>
      <path id="ArialMT-65" d="M 2694 1069 
L 3275 997 
Q 3138 488 2766 206 
Q 2394 -75 1816 -75 
Q 1088 -75 661 373 
Q 234 822 234 1631 
Q 234 2469 665 2931 
Q 1097 3394 1784 3394 
Q 2450 3394 2872 2941 
Q 3294 2488 3294 1666 
Q 3294 1616 3291 1516 
L 816 1516 
Q 847 969 1125 678 
Q 1403 388 1819 388 
Q 2128 388 2347 550 
Q 2566 713 2694 1069 
z
M 847 1978 
L 2700 1978 
Q 2663 2397 2488 2606 
Q 2219 2931 1791 2931 
Q 1403 2931 1139 2672 
Q 875 2413 847 1978 
z
" transform="scale(0.015625)"/>
      <path id="ArialMT-63" d="M 2588 1216 
L 3141 1144 
Q 3050 572 2676 248 
Q 2303 -75 1759 -75 
Q 1078 -75 664 370 
Q 250 816 250 1647 
Q 250 2184 428 2587 
Q 606 2991 970 3192 
Q 1334 3394 1763 3394 
Q 2303 3394 2647 3120 
Q 2991 2847 3088 2344 
L 2541 2259 
Q 2463 2594 2264 2762 
Q 2066 2931 1784 2931 
Q 1359 2931 1093 2626 
Q 828 2322 828 1663 
Q 828 994 1084 691 
Q 1341 388 1753 388 
Q 2084 388 2306 591 
Q 2528 794 2588 1216 
z
" transform="scale(0.015625)"/>
      <path id="ArialMT-74" d="M 1650 503 
L 1731 6 
Q 1494 -44 1306 -44 
Q 1000 -44 831 53 
Q 663 150 594 308 
Q 525 466 525 972 
L 525 2881 
L 113 2881 
L 113 3319 
L 525 3319 
L 525 4141 
L 1084 4478 
L 1084 3319 
L 1650 3319 
L 1650 2881 
L 1084 2881 
L 1084 941 
Q 1084 700 1114 631 
Q 1144 563 1211 522 
Q 1278 481 1403 481 
Q 1497 481 1650 503 
z
" transform="scale(0.015625)"/>
     </defs>
     <use xlink:href="#ArialMT-45"/>
     <use xlink:href="#ArialMT-66" x="66.699219"/>
     <use xlink:href="#ArialMT-66" x="92.732422"/>
     <use xlink:href="#ArialMT-65" x="120.515625"/>
     <use xlink:href="#ArialMT-63" x="176.130859"/>
     <use xlink:href="#ArialMT-74" x="226.130859"/>
    </g>
   </g>
   <g id="text_9">
    <!-- No-Effect -->
    <g style="fill: #262626" transform="translate(523.11971 87.058384)scale(0.12 -0.12)">
     <defs>
      <path id="ArialMT-4e" d="M 488 0 
L 488 4581 
L 1109 4581 
L 3516 984 
L 3516 4581 
L 4097 4581 
L 4097 0 
L 3475 0 
L 1069 3600 
L 1069 0 
L 488 0 
z
" transform="scale(0.015625)"/>
      <path id="ArialMT-6f" d="M 213 1659 
Q 213 2581 725 3025 
Q 1153 3394 1769 3394 
Q 2453 3394 2887 2945 
Q 3322 2497 3322 1706 
Q 3322 1066 3130 698 
Q 2938 331 2570 128 
Q 2203 -75 1769 -75 
Q 1072 -75 642 372 
Q 213 819 213 1659 
z
M 791 1659 
Q 791 1022 1069 705 
Q 1347 388 1769 388 
Q 2188 388 2466 706 
Q 2744 1025 2744 1678 
Q 2744 2294 2464 2611 
Q 2184 2928 1769 2928 
Q 1347 2928 1069 2612 
Q 791 2297 791 1659 
z
" transform="scale(0.015625)"/>
      <path id="ArialMT-2d" d="M 203 1375 
L 203 1941 
L 1931 1941 
L 1931 1375 
L 203 1375 
z
" transform="scale(0.015625)"/>
     </defs>
     <use xlink:href="#ArialMT-4e"/>
     <use xlink:href="#ArialMT-6f" x="72.216797"/>
     <use xlink:href="#ArialMT-2d" x="127.832031"/>
     <use xlink:href="#ArialMT-45" x="161.132812"/>
     <use xlink:href="#ArialMT-66" x="227.832031"/>
     <use xlink:href="#ArialMT-66" x="253.865234"/>
     <use xlink:href="#ArialMT-65" x="281.648438"/>
     <use xlink:href="#ArialMT-63" x="337.263672"/>
     <use xlink:href="#ArialMT-74" x="387.263672"/>
    </g>
   </g>
   <g id="text_10">
    <!-- Cyto -->
    <g style="fill: #262626" transform="translate(187.077757 580.739733)scale(0.12 -0.12)">
     <defs>
      <path id="ArialMT-43" d="M 3763 1606 
L 4369 1453 
Q 4178 706 3683 314 
Q 3188 -78 2472 -78 
Q 1731 -78 1267 223 
Q 803 525 561 1097 
Q 319 1669 319 2325 
Q 319 3041 592 3573 
Q 866 4106 1370 4382 
Q 1875 4659 2481 4659 
Q 3169 4659 3637 4309 
Q 4106 3959 4291 3325 
L 3694 3184 
Q 3534 3684 3231 3912 
Q 2928 4141 2469 4141 
Q 1941 4141 1586 3887 
Q 1231 3634 1087 3207 
Q 944 2781 944 2328 
Q 944 1744 1114 1308 
Q 1284 872 1643 656 
Q 2003 441 2422 441 
Q 2931 441 3284 734 
Q 3638 1028 3763 1606 
z
" transform="scale(0.015625)"/>
      <path id="ArialMT-79" d="M 397 -1278 
L 334 -750 
Q 519 -800 656 -800 
Q 844 -800 956 -737 
Q 1069 -675 1141 -563 
Q 1194 -478 1313 -144 
Q 1328 -97 1363 -6 
L 103 3319 
L 709 3319 
L 1400 1397 
Q 1534 1031 1641 628 
Q 1738 1016 1872 1384 
L 2581 3319 
L 3144 3319 
L 1881 -56 
Q 1678 -603 1566 -809 
Q 1416 -1088 1222 -1217 
Q 1028 -1347 759 -1347 
Q 597 -1347 397 -1278 
z
" transform="scale(0.015625)"/>
     </defs>
     <use xlink:href="#ArialMT-43"/>
     <use xlink:href="#ArialMT-79" x="72.216797"/>
     <use xlink:href="#ArialMT-74" x="122.216797"/>
     <use xlink:href="#ArialMT-6f" x="150"/>
    </g>
   </g>
  </g>
 </g>
 <defs>
  <clipPath id="pcf7eaa812a">
   <rect x="10.8" y="37.448902" width="698.4" height="645.102196"/>
  </clipPath>
 </defs>
</svg>
