<?xml version="1.0" encoding="utf-8" standalone="no"?>
<!DOCTYPE svg PUBLIC "-//W3C//DTD SVG 1.1//EN"
  "http://www.w3.org/Graphics/SVG/1.1/DTD/svg11.dtd">
<svg xmlns:xlink="http://www.w3.org/1999/xlink" width="720pt" height="720pt" viewBox="0 0 720 720" xmlns="http://www.w3.org/2000/svg" version="1.1">
 <metadata>
  <rdf:RDF xmlns:dc="http://purl.org/dc/elements/1.1/" xmlns:cc="http://creativecommons.org/ns#" xmlns:rdf="http://www.w3.org/1999/02/22-rdf-syntax-ns#">
   <cc:Work>
    <dc:type rdf:resource="http://purl.org/dc/dcmitype/StillImage"/>
    <dc:date>2022-12-23T09:44:05.959160</dc:date>
    <dc:format>image/svg+xml</dc:format>
    <dc:creator>
     <cc:Agent>
      <dc:title>Matplotlib v3.5.2, https://matplotlib.org/</dc:title>
     </cc:Agent>
    </dc:creator>
   </cc:Work>
  </rdf:RDF>
 </metadata>
 <defs>
  <style type="text/css">*{stroke-linejoin: round; stroke-linecap: butt}</style>
 </defs>
 <g id="figure_1">
  <g id="patch_1">
   <path d="M 0 720 
L 720 720 
L 720 0 
L 0 0 
L 0 720 
z
" style="fill: none"/>
  </g>
  <g id="axes_1">
   <g id="patch_2">
    <path d="M 136.706346 203.504466 
C 114.058194 221.752355 95.638924 244.701115 82.724236 270.761336 
C 69.809549 296.821558 62.704644 325.377387 61.9016 354.451077 
C 61.098555 383.524766 66.616349 412.429247 78.072824 439.162624 
C 89.529299 465.896002 106.653717 489.826514 128.260057 509.296757 
C 124.603954 502.978373 121.362089 496.429191 118.554936 489.690574 
C 115.747783 482.951958 113.381267 476.038125 111.470333 468.992745 
C 93.64095 426.054152 86.617005 379.389449 91.016581 333.104966 
C 95.416157 286.820483 111.106305 242.31487 136.706346 203.504466 
" clip-path="url(#p8c371f5966)" style="fill: #c44e52; opacity: 0.4"/>
   </g>
   <g id="patch_3">
    <path d="M 136.706346 203.504466 
C 172.769874 174.447646 217.791943 158.731334 264.103778 159.032547 
C 310.415613 159.333759 355.229443 175.634364 390.911965 205.15782 
C 426.594487 234.681275 450.997767 275.650398 459.965105 321.086767 
C 468.932444 366.523136 461.924047 413.691679 440.133678 454.558006 
C 434.965957 483.435762 422.349031 510.470678 403.534994 532.979835 
C 384.720957 555.488992 360.353462 572.70232 332.850716 582.911586 
C 305.34797 593.120851 275.650881 595.976781 246.706557 591.195956 
C 217.762234 586.41513 190.560903 574.161108 167.801998 555.649966 
C 187.980914 576.912463 211.328359 594.925729 237.014814 609.049765 
C 262.70127 623.173801 290.418883 633.23933 319.182865 638.888731 
C 347.946847 644.538131 377.412461 645.703695 406.532813 642.34401 
C 435.653166 638.984326 464.079248 631.139659 490.8011 619.088724 
C 517.522952 607.03779 542.220312 590.925021 564.0157 571.322891 
C 585.811087 551.720761 604.443282 528.864203 619.250297 503.565296 
C 634.057312 478.266389 644.861684 450.82834 651.27954 422.226006 
C 657.697396 393.623672 659.651818 364.199852 657.073368 334.999955 
C 654.494917 305.800058 647.414496 277.174045 636.083667 250.138981 
C 624.752839 223.103916 609.307403 197.983815 590.296126 175.671179 
C 571.284849 153.358542 548.935581 134.120788 524.042378 118.64142 
C 499.149175 103.162053 472.010381 91.626592 443.590221 84.444886 
C 415.170061 77.263181 385.809151 74.521302 356.550664 76.316669 
C 327.292177 78.112035 298.486777 84.423129 271.157902 95.025721 
C 243.829026 105.628312 218.304212 120.39533 195.490339 138.802111 
C 172.676465 157.208892 152.846958 179.03483 136.706346 203.504466 
" clip-path="url(#p8c371f5966)" style="fill: #55a868; opacity: 0.4"/>
   </g>
   <g id="patch_4">
    <path d="M 136.706346 203.504466 
C 111.106305 242.31487 95.416157 286.820483 91.016581 333.104966 
C 86.617005 379.389449 93.64095 426.054152 111.470333 468.992745 
C 104.853353 444.596746 103.807038 419.022048 108.409055 394.167057 
C 113.011073 369.312065 123.144664 345.807379 138.057615 325.397747 
C 152.970566 304.988116 172.284518 288.191353 194.5658 276.254282 
C 216.847081 264.317211 241.530391 257.542687 266.783491 256.433583 
C 292.036591 255.324479 317.218782 259.908933 340.460793 269.846643 
C 363.702805 279.784353 384.414961 294.823187 401.059802 313.846815 
C 417.704643 332.870443 429.859871 355.396216 436.623205 379.752046 
C 443.386538 404.107877 444.586384 429.675832 440.133678 454.558006 
C 461.924047 413.691679 468.932444 366.523136 459.965105 321.086767 
C 450.997767 275.650398 426.594487 234.681275 390.911965 205.15782 
C 355.229443 175.634364 310.415613 159.333759 264.103778 159.032547 
C 217.791943 158.731334 172.769874 174.447646 136.706346 203.504466 
" clip-path="url(#p8c371f5966)" style="fill: #c5ac82; opacity: 0.4"/>
   </g>
   <g id="patch_5">
    <path d="M 128.260057 509.296757 
C 133.377507 518.140602 139.288378 526.500934 145.919658 534.27448 
C 152.550938 542.048026 159.875209 549.202647 167.801998 555.649966 
C 162.057115 549.59659 156.581637 543.293119 151.391483 536.75788 
C 146.201329 530.222641 141.301535 523.461974 136.706346 516.495534 
C 135.265835 515.334897 133.841418 514.154426 132.433502 512.954458 
C 131.025586 511.75449 129.634305 510.53514 128.260057 509.296757 
" clip-path="url(#p8c371f5966)" style="fill: #4c72b0; opacity: 0.4"/>
   </g>
   <g id="patch_6">
    <path d="M 128.260057 509.296757 
C 129.634305 510.53514 131.025586 511.75449 132.433502 512.954458 
C 133.841418 514.154426 135.265835 515.334897 136.706346 516.495534 
C 131.761709 508.999322 127.175125 501.272973 122.962032 493.342494 
C 118.74894 485.412015 114.91407 477.286315 111.470333 468.992745 
C 113.381267 476.038125 115.747783 482.951958 118.554936 489.690574 
C 121.362089 496.429191 124.603954 502.978373 128.260057 509.296757 
" clip-path="url(#p8c371f5966)" style="fill: #be86b5; opacity: 0.4"/>
   </g>
   <g id="patch_7">
    <path d="M 440.133678 454.558006 
C 426.216267 480.659148 406.706466 503.368632 383.000923 521.060755 
C 359.295381 538.752878 331.973595 550.995143 302.991452 556.911164 
C 274.009308 562.827185 244.075294 562.272339 215.332297 555.286348 
C 186.5893 548.300356 159.739962 535.053996 136.706346 516.495534 
C 141.301535 523.461974 146.201329 530.222641 151.391483 536.75788 
C 156.581637 543.293119 162.057115 549.59659 167.801998 555.649966 
C 190.560903 574.161108 217.762234 586.41513 246.706557 591.195956 
C 275.650881 595.976781 305.34797 593.120851 332.850716 582.911586 
C 360.353462 572.70232 384.720957 555.488992 403.534994 532.979835 
C 422.349031 510.470678 434.965957 483.435762 440.133678 454.558006 
" clip-path="url(#p8c371f5966)" style="fill: #71c5c4; opacity: 0.4"/>
   </g>
   <g id="patch_8">
    <path d="M 111.470333 468.992745 
C 114.91407 477.286315 118.74894 485.412015 122.962032 493.342494 
C 127.175125 501.272973 131.761709 508.999322 136.706346 516.495534 
C 159.739962 535.053996 186.5893 548.300356 215.332297 555.286348 
C 244.075294 562.272339 274.009308 562.827185 302.991452 556.911164 
C 331.973595 550.995143 359.295381 538.752878 383.000923 521.060755 
C 406.706466 503.368632 426.216267 480.659148 440.133678 454.558006 
C 444.586384 429.675832 443.386538 404.107877 436.623205 379.752046 
C 429.859871 355.396216 417.704643 332.870443 401.059802 313.846815 
C 384.414961 294.823187 363.702805 279.784353 340.460793 269.846643 
C 317.218782 259.908933 292.036591 255.324479 266.783491 256.433583 
C 241.530391 257.542687 216.847081 264.317211 194.5658 276.254282 
C 172.284518 288.191353 152.970566 304.988116 138.057615 325.397747 
C 123.144664 345.807379 113.011073 369.312065 108.409055 394.167057 
C 103.807038 419.022048 104.853353 444.596746 111.470333 468.992745 
" clip-path="url(#p8c371f5966)" style="fill: #8f9091; opacity: 0.4"/>
   </g>
   <g id="text_1">
    <!-- 27 -->
    <g style="fill: #262626" transform="translate(70.887052 361.848534)scale(0.1 -0.1)">
     <defs>
      <path id="ArialMT-32" d="M 3222 541 
L 3222 0 
L 194 0 
Q 188 203 259 391 
Q 375 700 629 1000 
Q 884 1300 1366 1694 
Q 2113 2306 2375 2664 
Q 2638 3022 2638 3341 
Q 2638 3675 2398 3904 
Q 2159 4134 1775 4134 
Q 1369 4134 1125 3890 
Q 881 3647 878 3216 
L 300 3275 
Q 359 3922 746 4261 
Q 1134 4600 1788 4600 
Q 2447 4600 2831 4234 
Q 3216 3869 3216 3328 
Q 3216 3053 3103 2787 
Q 2991 2522 2730 2228 
Q 2469 1934 1863 1422 
Q 1356 997 1212 845 
Q 1069 694 975 541 
L 3222 541 
z
" transform="scale(0.015625)"/>
      <path id="ArialMT-37" d="M 303 3981 
L 303 4522 
L 3269 4522 
L 3269 4084 
Q 2831 3619 2401 2847 
Q 1972 2075 1738 1259 
Q 1569 684 1522 0 
L 944 0 
Q 953 541 1156 1306 
Q 1359 2072 1739 2783 
Q 2119 3494 2547 3981 
L 303 3981 
z
" transform="scale(0.015625)"/>
     </defs>
     <use xlink:href="#ArialMT-32"/>
     <use xlink:href="#ArialMT-37" x="55.615234"/>
    </g>
   </g>
   <g id="text_2">
    <!-- 532 -->
    <g style="fill: #262626" transform="translate(505.003792 353.900855)scale(0.1 -0.1)">
     <defs>
      <path id="ArialMT-35" d="M 266 1200 
L 856 1250 
Q 922 819 1161 601 
Q 1400 384 1738 384 
Q 2144 384 2425 690 
Q 2706 997 2706 1503 
Q 2706 1984 2436 2262 
Q 2166 2541 1728 2541 
Q 1456 2541 1237 2417 
Q 1019 2294 894 2097 
L 366 2166 
L 809 4519 
L 3088 4519 
L 3088 3981 
L 1259 3981 
L 1013 2750 
Q 1425 3038 1878 3038 
Q 2478 3038 2890 2622 
Q 3303 2206 3303 1553 
Q 3303 931 2941 478 
Q 2500 -78 1738 -78 
Q 1113 -78 717 272 
Q 322 622 266 1200 
z
" transform="scale(0.015625)"/>
      <path id="ArialMT-33" d="M 269 1209 
L 831 1284 
Q 928 806 1161 595 
Q 1394 384 1728 384 
Q 2125 384 2398 659 
Q 2672 934 2672 1341 
Q 2672 1728 2419 1979 
Q 2166 2231 1775 2231 
Q 1616 2231 1378 2169 
L 1441 2663 
Q 1497 2656 1531 2656 
Q 1891 2656 2178 2843 
Q 2466 3031 2466 3422 
Q 2466 3731 2256 3934 
Q 2047 4138 1716 4138 
Q 1388 4138 1169 3931 
Q 950 3725 888 3313 
L 325 3413 
Q 428 3978 793 4289 
Q 1159 4600 1703 4600 
Q 2078 4600 2393 4439 
Q 2709 4278 2876 4000 
Q 3044 3722 3044 3409 
Q 3044 3113 2884 2869 
Q 2725 2625 2413 2481 
Q 2819 2388 3044 2092 
Q 3269 1797 3269 1353 
Q 3269 753 2831 336 
Q 2394 -81 1725 -81 
Q 1122 -81 723 278 
Q 325 638 269 1209 
z
" transform="scale(0.015625)"/>
     </defs>
     <use xlink:href="#ArialMT-35"/>
     <use xlink:href="#ArialMT-33" x="55.615234"/>
     <use xlink:href="#ArialMT-32" x="111.230469"/>
    </g>
   </g>
   <g id="text_3">
    <!-- 169 -->
    <g style="fill: #262626" transform="translate(281.50052 250.037478)scale(0.1 -0.1)">
     <defs>
      <path id="ArialMT-31" d="M 2384 0 
L 1822 0 
L 1822 3584 
Q 1619 3391 1289 3197 
Q 959 3003 697 2906 
L 697 3450 
Q 1169 3672 1522 3987 
Q 1875 4303 2022 4600 
L 2384 4600 
L 2384 0 
z
" transform="scale(0.015625)"/>
      <path id="ArialMT-36" d="M 3184 3459 
L 2625 3416 
Q 2550 3747 2413 3897 
Q 2184 4138 1850 4138 
Q 1581 4138 1378 3988 
Q 1113 3794 959 3422 
Q 806 3050 800 2363 
Q 1003 2672 1297 2822 
Q 1591 2972 1913 2972 
Q 2475 2972 2870 2558 
Q 3266 2144 3266 1488 
Q 3266 1056 3080 686 
Q 2894 316 2569 119 
Q 2244 -78 1831 -78 
Q 1128 -78 684 439 
Q 241 956 241 2144 
Q 241 3472 731 4075 
Q 1159 4600 1884 4600 
Q 2425 4600 2770 4297 
Q 3116 3994 3184 3459 
z
M 888 1484 
Q 888 1194 1011 928 
Q 1134 663 1356 523 
Q 1578 384 1822 384 
Q 2178 384 2434 671 
Q 2691 959 2691 1453 
Q 2691 1928 2437 2201 
Q 2184 2475 1800 2475 
Q 1419 2475 1153 2201 
Q 888 1928 888 1484 
z
" transform="scale(0.015625)"/>
      <path id="ArialMT-39" d="M 350 1059 
L 891 1109 
Q 959 728 1153 556 
Q 1347 384 1650 384 
Q 1909 384 2104 503 
Q 2300 622 2425 820 
Q 2550 1019 2634 1356 
Q 2719 1694 2719 2044 
Q 2719 2081 2716 2156 
Q 2547 1888 2255 1720 
Q 1963 1553 1622 1553 
Q 1053 1553 659 1965 
Q 266 2378 266 3053 
Q 266 3750 677 4175 
Q 1088 4600 1706 4600 
Q 2153 4600 2523 4359 
Q 2894 4119 3086 3673 
Q 3278 3228 3278 2384 
Q 3278 1506 3087 986 
Q 2897 466 2520 194 
Q 2144 -78 1638 -78 
Q 1100 -78 759 220 
Q 419 519 350 1059 
z
M 2653 3081 
Q 2653 3566 2395 3850 
Q 2138 4134 1775 4134 
Q 1400 4134 1122 3828 
Q 844 3522 844 3034 
Q 844 2597 1108 2323 
Q 1372 2050 1759 2050 
Q 2150 2050 2401 2323 
Q 2653 2597 2653 3081 
z
" transform="scale(0.015625)"/>
     </defs>
     <use xlink:href="#ArialMT-31"/>
     <use xlink:href="#ArialMT-36" x="55.615234"/>
     <use xlink:href="#ArialMT-39" x="111.230469"/>
    </g>
   </g>
   <g id="text_4">
    <!-- 1 -->
    <g style="fill: #262626" transform="translate(143.50748 535.615443)scale(0.1 -0.1)">
     <use xlink:href="#ArialMT-31"/>
    </g>
   </g>
   <g id="text_5">
    <!-- 0 -->
    <g style="fill: #262626" transform="translate(118.949647 496.19464)scale(0.1 -0.1)">
     <defs>
      <path id="ArialMT-30" d="M 266 2259 
Q 266 3072 433 3567 
Q 600 4063 929 4331 
Q 1259 4600 1759 4600 
Q 2128 4600 2406 4451 
Q 2684 4303 2865 4023 
Q 3047 3744 3150 3342 
Q 3253 2941 3253 2259 
Q 3253 1453 3087 958 
Q 2922 463 2592 192 
Q 2263 -78 1759 -78 
Q 1097 -78 719 397 
Q 266 969 266 2259 
z
M 844 2259 
Q 844 1131 1108 757 
Q 1372 384 1759 384 
Q 2147 384 2411 759 
Q 2675 1134 2675 2259 
Q 2675 3391 2411 3762 
Q 2147 4134 1753 4134 
Q 1366 4134 1134 3806 
Q 844 3388 844 2259 
z
" transform="scale(0.015625)"/>
     </defs>
     <use xlink:href="#ArialMT-30"/>
    </g>
   </g>
   <g id="text_6">
    <!-- 35 -->
    <g style="fill: #262626" transform="translate(306.229445 572.069379)scale(0.1 -0.1)">
     <use xlink:href="#ArialMT-33"/>
     <use xlink:href="#ArialMT-35" x="55.615234"/>
    </g>
   </g>
   <g id="text_7">
    <!-- 344 -->
    <g style="fill: #262626" transform="translate(265.028079 362.682129)scale(0.1 -0.1)">
     <defs>
      <path id="ArialMT-34" d="M 2069 0 
L 2069 1097 
L 81 1097 
L 81 1613 
L 2172 4581 
L 2631 4581 
L 2631 1613 
L 3250 1613 
L 3250 1097 
L 2631 1097 
L 2631 0 
L 2069 0 
z
M 2069 1613 
L 2069 3678 
L 634 1613 
L 2069 1613 
z
" transform="scale(0.015625)"/>
     </defs>
     <use xlink:href="#ArialMT-33"/>
     <use xlink:href="#ArialMT-34" x="55.615234"/>
     <use xlink:href="#ArialMT-34" x="111.230469"/>
    </g>
   </g>
   <g id="text_8">
    <!-- Effect -->
    <g style="fill: #262626" transform="translate(131.842083 159.028296)scale(0.12 -0.12)">
     <defs>
      <path id="ArialMT-45" d="M 506 0 
L 506 4581 
L 3819 4581 
L 3819 4041 
L 1113 4041 
L 1113 2638 
L 3647 2638 
L 3647 2100 
L 1113 2100 
L 1113 541 
L 3925 541 
L 3925 0 
L 506 0 
z
" transform="scale(0.015625)"/>
      <path id="ArialMT-66" d="M 556 0 
L 556 2881 
L 59 2881 
L 59 3319 
L 556 3319 
L 556 3672 
Q 556 4006 616 4169 
Q 697 4388 901 4523 
Q 1106 4659 1475 4659 
Q 1713 4659 2000 4603 
L 1916 4113 
Q 1741 4144 1584 4144 
Q 1328 4144 1222 4034 
Q 1116 3925 1116 3625 
L 1116 3319 
L 1763 3319 
L 1763 2881 
L 1116 2881 
L 1116 0 
L 556 0 
z
" transform="scale(0.015625)"/>
      <path id="ArialMT-65" d="M 2694 1069 
L 3275 997 
Q 3138 488 2766 206 
Q 2394 -75 1816 -75 
Q 1088 -75 661 373 
Q 234 822 234 1631 
Q 234 2469 665 2931 
Q 1097 3394 1784 3394 
Q 2450 3394 2872 2941 
Q 3294 2488 3294 1666 
Q 3294 1616 3291 1516 
L 816 1516 
Q 847 969 1125 678 
Q 1403 388 1819 388 
Q 2128 388 2347 550 
Q 2566 713 2694 1069 
z
M 847 1978 
L 2700 1978 
Q 2663 2397 2488 2606 
Q 2219 2931 1791 2931 
Q 1403 2931 1139 2672 
Q 875 2413 847 1978 
z
" transform="scale(0.015625)"/>
      <path id="ArialMT-63" d="M 2588 1216 
L 3141 1144 
Q 3050 572 2676 248 
Q 2303 -75 1759 -75 
Q 1078 -75 664 370 
Q 250 816 250 1647 
Q 250 2184 428 2587 
Q 606 2991 970 3192 
Q 1334 3394 1763 3394 
Q 2303 3394 2647 3120 
Q 2991 2847 3088 2344 
L 2541 2259 
Q 2463 2594 2264 2762 
Q 2066 2931 1784 2931 
Q 1359 2931 1093 2626 
Q 828 2322 828 1663 
Q 828 994 1084 691 
Q 1341 388 1753 388 
Q 2084 388 2306 591 
Q 2528 794 2588 1216 
z
" transform="scale(0.015625)"/>
      <path id="ArialMT-74" d="M 1650 503 
L 1731 6 
Q 1494 -44 1306 -44 
Q 1000 -44 831 53 
Q 663 150 594 308 
Q 525 466 525 972 
L 525 2881 
L 113 2881 
L 113 3319 
L 525 3319 
L 525 4141 
L 1084 4478 
L 1084 3319 
L 1650 3319 
L 1650 2881 
L 1084 2881 
L 1084 941 
Q 1084 700 1114 631 
Q 1144 563 1211 522 
Q 1278 481 1403 481 
Q 1497 481 1650 503 
z
" transform="scale(0.015625)"/>
     </defs>
     <use xlink:href="#ArialMT-45"/>
     <use xlink:href="#ArialMT-66" x="66.699219"/>
     <use xlink:href="#ArialMT-66" x="92.732422"/>
     <use xlink:href="#ArialMT-65" x="120.515625"/>
     <use xlink:href="#ArialMT-63" x="176.130859"/>
     <use xlink:href="#ArialMT-74" x="226.130859"/>
    </g>
   </g>
   <g id="text_9">
    <!-- No-Effect -->
    <g style="fill: #262626" transform="translate(516.066564 75.783091)scale(0.12 -0.12)">
     <defs>
      <path id="ArialMT-4e" d="M 488 0 
L 488 4581 
L 1109 4581 
L 3516 984 
L 3516 4581 
L 4097 4581 
L 4097 0 
L 3475 0 
L 1069 3600 
L 1069 0 
L 488 0 
z
" transform="scale(0.015625)"/>
      <path id="ArialMT-6f" d="M 213 1659 
Q 213 2581 725 3025 
Q 1153 3394 1769 3394 
Q 2453 3394 2887 2945 
Q 3322 2497 3322 1706 
Q 3322 1066 3130 698 
Q 2938 331 2570 128 
Q 2203 -75 1769 -75 
Q 1072 -75 642 372 
Q 213 819 213 1659 
z
M 791 1659 
Q 791 1022 1069 705 
Q 1347 388 1769 388 
Q 2188 388 2466 706 
Q 2744 1025 2744 1678 
Q 2744 2294 2464 2611 
Q 2184 2928 1769 2928 
Q 1347 2928 1069 2612 
Q 791 2297 791 1659 
z
" transform="scale(0.015625)"/>
      <path id="ArialMT-2d" d="M 203 1375 
L 203 1941 
L 1931 1941 
L 1931 1375 
L 203 1375 
z
" transform="scale(0.015625)"/>
     </defs>
     <use xlink:href="#ArialMT-4e"/>
     <use xlink:href="#ArialMT-6f" x="72.216797"/>
     <use xlink:href="#ArialMT-2d" x="127.832031"/>
     <use xlink:href="#ArialMT-45" x="161.132812"/>
     <use xlink:href="#ArialMT-66" x="227.832031"/>
     <use xlink:href="#ArialMT-66" x="253.865234"/>
     <use xlink:href="#ArialMT-65" x="281.648438"/>
     <use xlink:href="#ArialMT-63" x="337.263672"/>
     <use xlink:href="#ArialMT-74" x="387.263672"/>
    </g>
   </g>
   <g id="text_10">
    <!-- Cyto -->
    <g style="fill: #262626" transform="translate(261.844157 619.044233)scale(0.12 -0.12)">
     <defs>
      <path id="ArialMT-43" d="M 3763 1606 
L 4369 1453 
Q 4178 706 3683 314 
Q 3188 -78 2472 -78 
Q 1731 -78 1267 223 
Q 803 525 561 1097 
Q 319 1669 319 2325 
Q 319 3041 592 3573 
Q 866 4106 1370 4382 
Q 1875 4659 2481 4659 
Q 3169 4659 3637 4309 
Q 4106 3959 4291 3325 
L 3694 3184 
Q 3534 3684 3231 3912 
Q 2928 4141 2469 4141 
Q 1941 4141 1586 3887 
Q 1231 3634 1087 3207 
Q 944 2781 944 2328 
Q 944 1744 1114 1308 
Q 1284 872 1643 656 
Q 2003 441 2422 441 
Q 2931 441 3284 734 
Q 3638 1028 3763 1606 
z
" transform="scale(0.015625)"/>
      <path id="ArialMT-79" d="M 397 -1278 
L 334 -750 
Q 519 -800 656 -800 
Q 844 -800 956 -737 
Q 1069 -675 1141 -563 
Q 1194 -478 1313 -144 
Q 1328 -97 1363 -6 
L 103 3319 
L 709 3319 
L 1400 1397 
Q 1534 1031 1641 628 
Q 1738 1016 1872 1384 
L 2581 3319 
L 3144 3319 
L 1881 -56 
Q 1678 -603 1566 -809 
Q 1416 -1088 1222 -1217 
Q 1028 -1347 759 -1347 
Q 597 -1347 397 -1278 
z
" transform="scale(0.015625)"/>
     </defs>
     <use xlink:href="#ArialMT-43"/>
     <use xlink:href="#ArialMT-79" x="72.216797"/>
     <use xlink:href="#ArialMT-74" x="122.216797"/>
     <use xlink:href="#ArialMT-6f" x="150"/>
    </g>
   </g>
  </g>
 </g>
 <defs>
  <clipPath id="p8c371f5966">
   <rect x="10.8" y="24.75811" width="698.4" height="670.483781"/>
  </clipPath>
 </defs>
</svg>
