<?xml version="1.0" encoding="utf-8" standalone="no"?>
<!DOCTYPE svg PUBLIC "-//W3C//DTD SVG 1.1//EN"
  "http://www.w3.org/Graphics/SVG/1.1/DTD/svg11.dtd">
<svg xmlns:xlink="http://www.w3.org/1999/xlink" width="720pt" height="720pt" viewBox="0 0 720 720" xmlns="http://www.w3.org/2000/svg" version="1.1">
 <metadata>
  <rdf:RDF xmlns:dc="http://purl.org/dc/elements/1.1/" xmlns:cc="http://creativecommons.org/ns#" xmlns:rdf="http://www.w3.org/1999/02/22-rdf-syntax-ns#">
   <cc:Work>
    <dc:type rdf:resource="http://purl.org/dc/dcmitype/StillImage"/>
    <dc:date>2022-12-23T09:36:45.464462</dc:date>
    <dc:format>image/svg+xml</dc:format>
    <dc:creator>
     <cc:Agent>
      <dc:title>Matplotlib v3.5.2, https://matplotlib.org/</dc:title>
     </cc:Agent>
    </dc:creator>
   </cc:Work>
  </rdf:RDF>
 </metadata>
 <defs>
  <style type="text/css">*{stroke-linejoin: round; stroke-linecap: butt}</style>
 </defs>
 <g id="figure_1">
  <g id="patch_1">
   <path d="M 0 720 
L 720 720 
L 720 0 
L 0 0 
z
" style="fill: #ffffff"/>
  </g>
  <g id="axes_1">
   <g id="patch_2">
    <path d="M 145.764401 251.956326 
C 125.077399 259.792088 107.069671 273.4068 93.891741 291.174563 
C 80.713811 308.942326 72.912005 330.126529 71.418032 352.197308 
C 69.924059 374.268087 74.799856 396.310438 85.463145 415.692015 
C 96.126433 435.073592 112.135138 450.990879 131.577463 461.542998 
C 132.245595 458.949088 133.050086 456.392225 133.987583 453.883068 
C 134.925081 451.373911 135.994279 448.915951 137.190723 446.519434 
C 126.225997 415.025117 121.34753 381.731609 122.815647 348.415519 
C 124.283765 315.099428 132.071879 282.36409 145.764401 251.956326 
" clip-path="url(#p2060bc8e18)" style="fill: #c44e52; opacity: 0.4"/>
   </g>
   <g id="patch_3">
    <path d="M 145.764401 251.956326 
C 170.296955 242.663957 197.277721 241.998653 222.238452 250.070594 
C 247.199183 258.142534 268.681469 274.48009 283.127658 296.377623 
C 297.573848 318.275156 304.139876 344.453231 301.738353 370.576535 
C 299.33683 396.699839 288.108071 421.242033 269.911656 440.138721 
C 276.883558 451.280852 280.854247 464.040138 281.436058 477.170865 
C 282.017869 490.301592 279.19123 503.362061 273.232112 515.077154 
C 267.272993 526.792247 258.381852 536.767884 247.426747 544.030126 
C 236.471641 551.292368 223.821086 555.596923 210.710178 556.523528 
C 231.292132 574.85058 254.625999 589.831056 279.85722 600.916323 
C 305.088441 612.00159 331.905195 619.054651 359.32537 621.817201 
C 386.745545 624.57975 414.430267 623.017648 441.365635 617.188102 
C 468.301003 611.358556 494.154136 601.333612 517.978211 587.480413 
C 541.802287 573.627215 563.302873 556.116968 581.692554 535.590952 
C 600.082234 515.064936 615.133738 491.776823 626.295832 466.579496 
C 637.457927 441.382168 644.592666 414.587029 647.438751 387.175399 
C 650.284837 359.763769 648.807096 332.074416 643.059649 305.12141 
C 637.312202 278.168404 627.366078 252.284846 613.585536 228.418671 
C 599.804993 204.552495 582.36034 182.998655 561.890452 164.546518 
C 541.420565 146.09438 518.178421 130.971988 493.015222 119.733169 
C 467.852022 108.49435 441.078746 101.278001 413.675915 98.348405 
C 386.273085 95.41881 358.579358 96.812175 331.608965 102.47747 
C 304.638572 108.142765 278.724828 118.009976 254.816774 131.717734 
C 230.908721 145.425493 209.301827 162.804392 190.787403 183.217961 
C 172.27298 203.63153 157.07984 226.827488 145.764401 251.956326 
" clip-path="url(#p2060bc8e18)" style="fill: #55a868; opacity: 0.4"/>
   </g>
   <g id="patch_4">
    <path d="M 145.764401 251.956326 
C 132.071879 282.36409 124.283765 315.099428 122.815647 348.415519 
C 121.34753 381.731609 126.225997 415.025117 137.190723 446.519434 
C 143.234793 434.412958 152.397088 424.132906 163.73113 416.74122 
C 175.065173 409.349534 188.166772 405.109814 201.682515 404.460029 
C 215.198259 403.810244 228.646152 406.773566 240.637011 413.04388 
C 252.62787 419.314195 262.73408 428.667891 269.911656 440.138721 
C 288.108071 421.242033 299.33683 396.699839 301.738353 370.576535 
C 304.139876 344.453231 297.573848 318.275156 283.127658 296.377623 
C 268.681469 274.48009 247.199183 258.142534 222.238452 250.070594 
C 197.277721 241.998653 170.296955 242.663957 145.764401 251.956326 
" clip-path="url(#p2060bc8e18)" style="fill: #c5ac82; opacity: 0.4"/>
   </g>
   <g id="patch_5">
    <path d="M 131.577463 461.542998 
C 128.565638 473.235909 128.376884 485.479107 131.026823 497.259306 
C 133.676762 509.039504 139.090214 520.022494 146.819144 529.299288 
C 154.548073 538.576081 164.373209 545.883492 175.481389 550.616734 
C 186.589569 555.349977 198.665651 557.374767 210.710178 556.523528 
C 196.934802 544.257344 184.487228 530.5767 173.572873 515.707365 
C 162.658518 500.83803 153.337755 484.862252 145.764401 468.043674 
C 143.330054 467.121599 140.927566 466.117515 138.56105 465.033141 
C 136.194534 463.948766 133.865342 462.784721 131.577463 461.542998 
" clip-path="url(#p2060bc8e18)" style="fill: #4c72b0; opacity: 0.4"/>
   </g>
   <g id="patch_6">
    <path d="M 131.577463 461.542998 
C 133.865342 462.784721 136.194534 463.948766 138.56105 465.033141 
C 140.927566 466.117515 143.330054 467.121599 145.764401 468.043674 
C 144.178335 464.521405 142.67002 460.964639 141.240554 457.375961 
C 139.811088 453.787283 138.460817 450.167563 137.190723 446.519434 
C 135.994279 448.915951 134.925081 451.373911 133.987583 453.883068 
C 133.050086 456.392225 132.245595 458.949088 131.577463 461.542998 
" clip-path="url(#p2060bc8e18)" style="fill: #be86b5; opacity: 0.4"/>
   </g>
   <g id="patch_7">
    <path d="M 269.911656 440.138721 
C 254.223801 456.43031 234.092121 467.762255 212.02577 472.722175 
C 189.959418 477.682095 166.914895 476.054996 145.764401 468.043674 
C 153.337755 484.862252 162.658518 500.83803 173.572873 515.707365 
C 184.487228 530.5767 196.934802 544.257344 210.710178 556.523528 
C 223.821086 555.596923 236.471641 551.292368 247.426747 544.030126 
C 258.381852 536.767884 267.272993 526.792247 273.232112 515.077154 
C 279.19123 503.362061 282.017869 490.301592 281.436058 477.170865 
C 280.854247 464.040138 276.883558 451.280852 269.911656 440.138721 
" clip-path="url(#p2060bc8e18)" style="fill: #71c5c4; opacity: 0.4"/>
   </g>
   <g id="patch_8">
    <path d="M 137.190723 446.519434 
C 138.460817 450.167563 139.811088 453.787283 141.240554 457.375961 
C 142.67002 460.964639 144.178335 464.521405 145.764401 468.043674 
C 166.914895 476.054996 189.959418 477.682095 212.02577 472.722175 
C 234.092121 467.762255 254.223801 456.43031 269.911656 440.138721 
C 262.73408 428.667891 252.62787 419.314195 240.637011 413.04388 
C 228.646152 406.773566 215.198259 403.810244 201.682515 404.460029 
C 188.166772 405.109814 175.065173 409.349534 163.73113 416.74122 
C 152.397088 424.132906 143.234793 434.412958 137.190723 446.519434 
" clip-path="url(#p2060bc8e18)" style="fill: #8f9091; opacity: 0.4"/>
   </g>
   <g id="text_1">
    <!-- 70 -->
    <g style="fill: #262626" transform="translate(75.450462 363.49674)scale(0.216 -0.216)">
     <defs>
      <path id="ArialMT-37" d="M 303 3981 
L 303 4522 
L 3269 4522 
L 3269 4084 
Q 2831 3619 2401 2847 
Q 1972 2075 1738 1259 
Q 1569 684 1522 0 
L 944 0 
Q 953 541 1156 1306 
Q 1359 2072 1739 2783 
Q 2119 3494 2547 3981 
L 303 3981 
z
" transform="scale(0.015625)"/>
      <path id="ArialMT-30" d="M 266 2259 
Q 266 3072 433 3567 
Q 600 4063 929 4331 
Q 1259 4600 1759 4600 
Q 2128 4600 2406 4451 
Q 2684 4303 2865 4023 
Q 3047 3744 3150 3342 
Q 3253 2941 3253 2259 
Q 3253 1453 3087 958 
Q 2922 463 2592 192 
Q 2263 -78 1759 -78 
Q 1097 -78 719 397 
Q 266 969 266 2259 
z
M 844 2259 
Q 844 1131 1108 757 
Q 1372 384 1759 384 
Q 2147 384 2411 759 
Q 2675 1134 2675 2259 
Q 2675 3391 2411 3762 
Q 2147 4134 1753 4134 
Q 1366 4134 1134 3806 
Q 844 3388 844 2259 
z
" transform="scale(0.015625)"/>
     </defs>
     <use xlink:href="#ArialMT-37"/>
     <use xlink:href="#ArialMT-30" x="55.615234"/>
    </g>
   </g>
   <g id="text_2">
    <!-- 1473 -->
    <g style="fill: #262626" transform="translate(441.736283 352.521023)scale(0.216 -0.216)">
     <defs>
      <path id="ArialMT-31" d="M 2384 0 
L 1822 0 
L 1822 3584 
Q 1619 3391 1289 3197 
Q 959 3003 697 2906 
L 697 3450 
Q 1169 3672 1522 3987 
Q 1875 4303 2022 4600 
L 2384 4600 
L 2384 0 
z
" transform="scale(0.015625)"/>
      <path id="ArialMT-34" d="M 2069 0 
L 2069 1097 
L 81 1097 
L 81 1613 
L 2172 4581 
L 2631 4581 
L 2631 1613 
L 3250 1613 
L 3250 1097 
L 2631 1097 
L 2631 0 
L 2069 0 
z
M 2069 1613 
L 2069 3678 
L 634 1613 
L 2069 1613 
z
" transform="scale(0.015625)"/>
      <path id="ArialMT-33" d="M 269 1209 
L 831 1284 
Q 928 806 1161 595 
Q 1394 384 1728 384 
Q 2125 384 2398 659 
Q 2672 934 2672 1341 
Q 2672 1728 2419 1979 
Q 2166 2231 1775 2231 
Q 1616 2231 1378 2169 
L 1441 2663 
Q 1497 2656 1531 2656 
Q 1891 2656 2178 2843 
Q 2466 3031 2466 3422 
Q 2466 3731 2256 3934 
Q 2047 4138 1716 4138 
Q 1388 4138 1169 3931 
Q 950 3725 888 3313 
L 325 3413 
Q 428 3978 793 4289 
Q 1159 4600 1703 4600 
Q 2078 4600 2393 4439 
Q 2709 4278 2876 4000 
Q 3044 3722 3044 3409 
Q 3044 3113 2884 2869 
Q 2725 2625 2413 2481 
Q 2819 2388 3044 2092 
Q 3269 1797 3269 1353 
Q 3269 753 2831 336 
Q 2394 -81 1725 -81 
Q 1122 -81 723 278 
Q 325 638 269 1209 
z
" transform="scale(0.015625)"/>
     </defs>
     <use xlink:href="#ArialMT-31"/>
     <use xlink:href="#ArialMT-34" x="55.615234"/>
     <use xlink:href="#ArialMT-37" x="111.230469"/>
     <use xlink:href="#ArialMT-33" x="166.845703"/>
    </g>
   </g>
   <g id="text_3">
    <!-- 224 -->
    <g style="fill: #262626" transform="translate(212.365636 350.110522)scale(0.216 -0.216)">
     <defs>
      <path id="ArialMT-32" d="M 3222 541 
L 3222 0 
L 194 0 
Q 188 203 259 391 
Q 375 700 629 1000 
Q 884 1300 1366 1694 
Q 2113 2306 2375 2664 
Q 2638 3022 2638 3341 
Q 2638 3675 2398 3904 
Q 2159 4134 1775 4134 
Q 1369 4134 1125 3890 
Q 881 3647 878 3216 
L 300 3275 
Q 359 3922 746 4261 
Q 1134 4600 1788 4600 
Q 2447 4600 2831 4234 
Q 3216 3869 3216 3328 
Q 3216 3053 3103 2787 
Q 2991 2522 2730 2228 
Q 2469 1934 1863 1422 
Q 1356 997 1212 845 
Q 1069 694 975 541 
L 3222 541 
z
" transform="scale(0.015625)"/>
     </defs>
     <use xlink:href="#ArialMT-32"/>
     <use xlink:href="#ArialMT-32" x="55.615234"/>
     <use xlink:href="#ArialMT-34" x="111.230469"/>
    </g>
   </g>
   <g id="text_4">
    <!-- 24 -->
    <g style="fill: #262626" transform="translate(138.942285 529.003537)scale(0.216 -0.216)">
     <use xlink:href="#ArialMT-32"/>
     <use xlink:href="#ArialMT-34" x="55.615234"/>
    </g>
   </g>
   <g id="text_5">
    <!-- 0 -->
    <g style="fill: #262626" transform="translate(130.876844 463.646792)scale(0.216 -0.216)">
     <use xlink:href="#ArialMT-30"/>
    </g>
   </g>
   <g id="text_6">
    <!-- 71 -->
    <g style="fill: #262626" transform="translate(230.154454 507.184016)scale(0.216 -0.216)">
     <use xlink:href="#ArialMT-37"/>
     <use xlink:href="#ArialMT-31" x="55.615234"/>
    </g>
   </g>
   <g id="text_7">
    <!-- 58 -->
    <g style="fill: #262626" transform="translate(191.668726 435.023768)scale(0.216 -0.216)">
     <defs>
      <path id="ArialMT-35" d="M 266 1200 
L 856 1250 
Q 922 819 1161 601 
Q 1400 384 1738 384 
Q 2144 384 2425 690 
Q 2706 997 2706 1503 
Q 2706 1984 2436 2262 
Q 2166 2541 1728 2541 
Q 1456 2541 1237 2417 
Q 1019 2294 894 2097 
L 366 2166 
L 809 4519 
L 3088 4519 
L 3088 3981 
L 1259 3981 
L 1013 2750 
Q 1425 3038 1878 3038 
Q 2478 3038 2890 2622 
Q 3303 2206 3303 1553 
Q 3303 931 2941 478 
Q 2500 -78 1738 -78 
Q 1113 -78 717 272 
Q 322 622 266 1200 
z
" transform="scale(0.015625)"/>
      <path id="ArialMT-38" d="M 1131 2484 
Q 781 2613 612 2850 
Q 444 3088 444 3419 
Q 444 3919 803 4259 
Q 1163 4600 1759 4600 
Q 2359 4600 2725 4251 
Q 3091 3903 3091 3403 
Q 3091 3084 2923 2848 
Q 2756 2613 2416 2484 
Q 2838 2347 3058 2040 
Q 3278 1734 3278 1309 
Q 3278 722 2862 322 
Q 2447 -78 1769 -78 
Q 1091 -78 675 323 
Q 259 725 259 1325 
Q 259 1772 486 2073 
Q 713 2375 1131 2484 
z
M 1019 3438 
Q 1019 3113 1228 2906 
Q 1438 2700 1772 2700 
Q 2097 2700 2305 2904 
Q 2513 3109 2513 3406 
Q 2513 3716 2298 3927 
Q 2084 4138 1766 4138 
Q 1444 4138 1231 3931 
Q 1019 3725 1019 3438 
z
M 838 1322 
Q 838 1081 952 856 
Q 1066 631 1291 507 
Q 1516 384 1775 384 
Q 2178 384 2440 643 
Q 2703 903 2703 1303 
Q 2703 1709 2433 1975 
Q 2163 2241 1756 2241 
Q 1359 2241 1098 1978 
Q 838 1716 838 1322 
z
" transform="scale(0.015625)"/>
     </defs>
     <use xlink:href="#ArialMT-35"/>
     <use xlink:href="#ArialMT-38" x="55.615234"/>
    </g>
   </g>
   <g id="text_8">
    <!-- Effect -->
    <g style="fill: #262626" transform="translate(63.109059 244.465385)scale(0.2592 -0.2592)">
     <defs>
      <path id="ArialMT-45" d="M 506 0 
L 506 4581 
L 3819 4581 
L 3819 4041 
L 1113 4041 
L 1113 2638 
L 3647 2638 
L 3647 2100 
L 1113 2100 
L 1113 541 
L 3925 541 
L 3925 0 
L 506 0 
z
" transform="scale(0.015625)"/>
      <path id="ArialMT-66" d="M 556 0 
L 556 2881 
L 59 2881 
L 59 3319 
L 556 3319 
L 556 3672 
Q 556 4006 616 4169 
Q 697 4388 901 4523 
Q 1106 4659 1475 4659 
Q 1713 4659 2000 4603 
L 1916 4113 
Q 1741 4144 1584 4144 
Q 1328 4144 1222 4034 
Q 1116 3925 1116 3625 
L 1116 3319 
L 1763 3319 
L 1763 2881 
L 1116 2881 
L 1116 0 
L 556 0 
z
" transform="scale(0.015625)"/>
      <path id="ArialMT-65" d="M 2694 1069 
L 3275 997 
Q 3138 488 2766 206 
Q 2394 -75 1816 -75 
Q 1088 -75 661 373 
Q 234 822 234 1631 
Q 234 2469 665 2931 
Q 1097 3394 1784 3394 
Q 2450 3394 2872 2941 
Q 3294 2488 3294 1666 
Q 3294 1616 3291 1516 
L 816 1516 
Q 847 969 1125 678 
Q 1403 388 1819 388 
Q 2128 388 2347 550 
Q 2566 713 2694 1069 
z
M 847 1978 
L 2700 1978 
Q 2663 2397 2488 2606 
Q 2219 2931 1791 2931 
Q 1403 2931 1139 2672 
Q 875 2413 847 1978 
z
" transform="scale(0.015625)"/>
      <path id="ArialMT-63" d="M 2588 1216 
L 3141 1144 
Q 3050 572 2676 248 
Q 2303 -75 1759 -75 
Q 1078 -75 664 370 
Q 250 816 250 1647 
Q 250 2184 428 2587 
Q 606 2991 970 3192 
Q 1334 3394 1763 3394 
Q 2303 3394 2647 3120 
Q 2991 2847 3088 2344 
L 2541 2259 
Q 2463 2594 2264 2762 
Q 2066 2931 1784 2931 
Q 1359 2931 1093 2626 
Q 828 2322 828 1663 
Q 828 994 1084 691 
Q 1341 388 1753 388 
Q 2084 388 2306 591 
Q 2528 794 2588 1216 
z
" transform="scale(0.015625)"/>
      <path id="ArialMT-74" d="M 1650 503 
L 1731 6 
Q 1494 -44 1306 -44 
Q 1000 -44 831 53 
Q 663 150 594 308 
Q 525 466 525 972 
L 525 2881 
L 113 2881 
L 113 3319 
L 525 3319 
L 525 4141 
L 1084 4478 
L 1084 3319 
L 1650 3319 
L 1650 2881 
L 1084 2881 
L 1084 941 
Q 1084 700 1114 631 
Q 1144 563 1211 522 
Q 1278 481 1403 481 
Q 1497 481 1650 503 
z
" transform="scale(0.015625)"/>
     </defs>
     <use xlink:href="#ArialMT-45"/>
     <use xlink:href="#ArialMT-66" x="66.699219"/>
     <use xlink:href="#ArialMT-66" x="92.732422"/>
     <use xlink:href="#ArialMT-65" x="120.515625"/>
     <use xlink:href="#ArialMT-63" x="176.130859"/>
     <use xlink:href="#ArialMT-74" x="226.130859"/>
    </g>
   </g>
   <g id="text_9">
    <!-- No-Effect -->
    <g style="fill: #262626" transform="translate(517.274444 96.85739)scale(0.2592 -0.2592)">
     <defs>
      <path id="ArialMT-4e" d="M 488 0 
L 488 4581 
L 1109 4581 
L 3516 984 
L 3516 4581 
L 4097 4581 
L 4097 0 
L 3475 0 
L 1069 3600 
L 1069 0 
L 488 0 
z
" transform="scale(0.015625)"/>
      <path id="ArialMT-6f" d="M 213 1659 
Q 213 2581 725 3025 
Q 1153 3394 1769 3394 
Q 2453 3394 2887 2945 
Q 3322 2497 3322 1706 
Q 3322 1066 3130 698 
Q 2938 331 2570 128 
Q 2203 -75 1769 -75 
Q 1072 -75 642 372 
Q 213 819 213 1659 
z
M 791 1659 
Q 791 1022 1069 705 
Q 1347 388 1769 388 
Q 2188 388 2466 706 
Q 2744 1025 2744 1678 
Q 2744 2294 2464 2611 
Q 2184 2928 1769 2928 
Q 1347 2928 1069 2612 
Q 791 2297 791 1659 
z
" transform="scale(0.015625)"/>
      <path id="ArialMT-2d" d="M 203 1375 
L 203 1941 
L 1931 1941 
L 1931 1375 
L 203 1375 
z
" transform="scale(0.015625)"/>
     </defs>
     <use xlink:href="#ArialMT-4e"/>
     <use xlink:href="#ArialMT-6f" x="72.216797"/>
     <use xlink:href="#ArialMT-2d" x="127.832031"/>
     <use xlink:href="#ArialMT-45" x="161.132812"/>
     <use xlink:href="#ArialMT-66" x="227.832031"/>
     <use xlink:href="#ArialMT-66" x="253.865234"/>
     <use xlink:href="#ArialMT-65" x="281.648438"/>
     <use xlink:href="#ArialMT-63" x="337.263672"/>
     <use xlink:href="#ArialMT-74" x="387.263672"/>
    </g>
   </g>
   <g id="text_10">
    <!-- Cyto -->
    <g style="fill: #262626" transform="translate(178.693298 583.199044)scale(0.2592 -0.2592)">
     <defs>
      <path id="ArialMT-43" d="M 3763 1606 
L 4369 1453 
Q 4178 706 3683 314 
Q 3188 -78 2472 -78 
Q 1731 -78 1267 223 
Q 803 525 561 1097 
Q 319 1669 319 2325 
Q 319 3041 592 3573 
Q 866 4106 1370 4382 
Q 1875 4659 2481 4659 
Q 3169 4659 3637 4309 
Q 4106 3959 4291 3325 
L 3694 3184 
Q 3534 3684 3231 3912 
Q 2928 4141 2469 4141 
Q 1941 4141 1586 3887 
Q 1231 3634 1087 3207 
Q 944 2781 944 2328 
Q 944 1744 1114 1308 
Q 1284 872 1643 656 
Q 2003 441 2422 441 
Q 2931 441 3284 734 
Q 3638 1028 3763 1606 
z
" transform="scale(0.015625)"/>
      <path id="ArialMT-79" d="M 397 -1278 
L 334 -750 
Q 519 -800 656 -800 
Q 844 -800 956 -737 
Q 1069 -675 1141 -563 
Q 1194 -478 1313 -144 
Q 1328 -97 1363 -6 
L 103 3319 
L 709 3319 
L 1400 1397 
Q 1534 1031 1641 628 
Q 1738 1016 1872 1384 
L 2581 3319 
L 3144 3319 
L 1881 -56 
Q 1678 -603 1566 -809 
Q 1416 -1088 1222 -1217 
Q 1028 -1347 759 -1347 
Q 597 -1347 397 -1278 
z
" transform="scale(0.015625)"/>
     </defs>
     <use xlink:href="#ArialMT-43"/>
     <use xlink:href="#ArialMT-79" x="72.216797"/>
     <use xlink:href="#ArialMT-74" x="122.216797"/>
     <use xlink:href="#ArialMT-6f" x="150"/>
    </g>
   </g>
  </g>
 </g>
 <defs>
  <clipPath id="p2060bc8e18">
   <rect x="23.328" y="49.031139" width="673.344" height="621.937723"/>
  </clipPath>
 </defs>
</svg>
